<?xml version="1.0" encoding="utf-8"?>
<!-- Generator: Adobe Illustrator 19.2.0, SVG Export Plug-In . SVG Version: 6.00 Build 0)  -->
<svg version="1.1" id="Layer_1" xmlns="http://www.w3.org/2000/svg" xmlns:xlink="http://www.w3.org/1999/xlink" x="0px" y="0px"
	 viewBox="0 0 198.1 72" style="enable-background:new 0 0 198.1 72;" xml:space="preserve">
<style type="text/css">
	.st0{fill:#F58220;}
	.st1{fill:#FFFFFF;}
	.st2{fill:#6D6E71;}
	.st3{fill:#58595B;}
</style>
<g>
	<path class="st0" d="M68.6,37C67.7,55.3,52,69.4,33.5,68.5C15,67.5,0.8,52,1.8,33.7C2.7,15.4,18.4,1.3,36.9,2.2
		C55.4,3.2,69.6,18.7,68.6,37"/>
	<path class="st1" d="M51,35.7c-0.7,1.6-1.1,3.2-1.6,4.8c-0.8,3-1.7,6.1-3.9,8.8c-1.8,2-3.7,4-6.8,4.4c-2,0-3.8-0.4-5.5-1.3
		c-2.7-1.5-5.9-3.6-5.8-7.4c0.4-3.4,1.8-6.8,4-9.2c2.3-2.4,5.6-1.1,8-0.1l0.2,0.1c2,1,4.6,2.3,4.6,5c-0.3,2.3-1.9,4.2-3.6,6
		l-0.4,0.3c-0.8,0.7-1.6,1.5-2.7,1.8c-1.9,0.4-3.3-1.4-4.2-2.6c0,0-0.1-0.1-0.1-0.2l-0.1-0.1c-0.6-0.9-1.4-2.2-1-3.5
		c0.4-1.7,1.9-2.5,3.2-3.2l0.1,0l0.1,0c1-0.4,2.5-0.9,3.4,0.1l0,0l0,0c0.7,1.8-0.1,3.5-1,5l-0.1,0.2l-1.6-0.9l0.2-0.3
		c0.3-0.5,0.6-1,0.8-1.6c0.1-0.2,0.1-0.4,0.1-0.6c0-0.2-0.1-0.4-0.2-0.5c-0.6,0-1.2,0.3-1.7,0.7C34.7,42,34,43,34.1,43.7
		c0.5,1.2,1.4,2.1,2,2.8l0.1,0.1c0.3,0.3,0.7,0.6,1,0.5c1.8-1,3.3-2.5,4.6-4.8c0.4-0.8,0.7-1.8,0.2-2.5c-2-1.9-5-3.2-7.9-3.2
		c-0.5,0.1-0.8,0.3-1.1,0.5c-2.1,2.2-3.4,5.3-3.6,8.3c-0.3,2.3,1.7,3.9,2.6,4.5c3.5,2.2,6.2,2.7,8.7,1.4c2.2-1.3,4-3.3,5.1-5.7
		c1.3-2.4,1.6-5.3,0.1-8.9l-8.2-24.8l-2.5,0.7l1.9,11.7l1.3,8.3c0,0-0.1,0-0.1,0l-7.4-20.9l-2.4,0.6l4,21.7l-0.1,0c0,0,0,0,0,0
		l-7.2-19l-2.4,0.6l3.7,20l-0.1,0c0,0,0-0.1,0-0.1l-6.1-15.4l-2.2,0.6l5.4,22.5c0.7,3.8,2,7.6,4.4,10.3c2.7,3.2,7.1,4.4,10.9,4.3
		c6.3-0.3,10.5-4.8,12.8-10.3c1.9-4.8,2.3-9.7,3.6-14.5c-0.5-0.1-0.9-0.1-1.2-0.1C52.5,33,51.6,34.1,51,35.7"/>
</g>
<g>
	<path class="st2" d="M138.1,35.3c-1.6,0-3.2-0.5-4.3-1.1l0.3-1.6c1.1,0.7,2.6,1.3,4.1,1.3c1.7,0,2.7-0.7,2.7-1.9
		c0-1.2-0.7-1.7-3.1-2.3c-2.6-0.7-3.8-1.5-3.8-3.5c0-1.8,1.6-3.2,4-3.2c1.4,0,2.6,0.3,3.7,0.8l-0.3,1.6c-1.1-0.6-2.3-0.9-3.5-0.9
		c-1.6,0-2.4,0.7-2.4,1.7c0,1,0.7,1.5,2.7,2c2.8,0.7,4.2,1.6,4.2,3.7C142.6,34.1,140.9,35.3,138.1,35.3"/>
	<path class="st2" d="M149.4,35.3c-1.9,0-3.1-0.7-3.1-2.9v-7.7h-1.8v-1.4h1.8v-4.1l1.6-0.3v4.4h3v1.4h-3v7.4c0,1.2,0.5,1.7,1.8,1.7
		c0.4,0,0.8-0.1,1.1-0.1l0.2,1.4C150.7,35.2,150.1,35.3,149.4,35.3"/>
	<path class="st2" d="M162,35.1l-0.3-1.7c-1.3,1.1-2.7,2-4.3,2c-2.4,0-3.5-1.4-3.5-3.6v-8.4h1.7v8.1c0,1.5,0.7,2.4,2.2,2.4
		c1.3,0,2.5-0.7,3.8-2v-8.5h1.7v11.8H162z"/>
	<path class="st2" d="M175.4,35.1l-0.3-1.7c-0.9,1.1-2.1,2-3.8,2c-2.6,0-4.8-1.8-4.8-5.8c0-4.3,2.5-6.4,5.4-6.4
		c1.2,0,2.3,0.2,3.1,0.6v-6.2l1.7-0.3v17.9H175.4z M175,25.3c-0.9-0.5-1.8-0.7-3-0.7c-2.1,0-3.8,1.6-3.8,4.9c0,2.9,1.4,4.4,3.3,4.4
		c1.4,0,2.5-0.8,3.6-2.1V25.3z"/>
	<path class="st2" d="M181.5,20.5c-0.7,0-1.2-0.5-1.2-1.2c0-0.6,0.6-1.2,1.2-1.2c0.7,0,1.2,0.5,1.2,1.2
		C182.7,20,182.1,20.5,181.5,20.5 M180.7,23.3h1.6v11.8h-1.6V23.3z"/>
	<path class="st2" d="M191,35.4c-3,0-5.3-2.2-5.3-6.1c0-3.9,2.3-6.1,5.3-6.1c3.1,0,5.4,2.2,5.4,6.1C196.4,33.1,194,35.4,191,35.4
		 M191,24.5c-2.2,0-3.6,1.8-3.6,4.8c0,2.9,1.5,4.7,3.6,4.7c2.2,0,3.7-1.8,3.7-4.7C194.7,26.4,193.2,24.5,191,24.5"/>
	<polygon class="st0" points="75,23.4 79,35.2 80.4,35.2 83.3,25.6 86.3,35.2 87.8,35.2 91.7,23.3 90,23.3 87.1,33 84.1,23.3 
		82.7,23.3 79.7,33 76.6,23.1 	"/>
	<path class="st0" d="M98.7,35.4c-3,0-5.3-2.2-5.3-6.1c0-3.9,2.3-6.1,5.3-6.1c3.1,0,5.4,2.2,5.4,6.1
		C104.1,33.1,101.8,35.4,98.7,35.4 M98.7,24.5c-2.2,0-3.6,1.8-3.6,4.8c0,2.9,1.5,4.7,3.6,4.7c2.2,0,3.7-1.8,3.7-4.7
		C102.4,26.4,101,24.5,98.7,24.5"/>
	<polygon class="st0" points="116,35.1 116,17.5 117.6,17.2 117.6,35.1 	"/>
	<path class="st0" d="M129.7,35.1l-0.3-1.7c-0.9,1.1-2.1,2-3.8,2c-2.6,0-4.8-1.8-4.8-5.8c0-4.3,2.5-6.4,5.4-6.4
		c1.2,0,2.3,0.2,3.1,0.6v-6.2l1.7-0.3v17.9H129.7z M129.3,25.3c-0.9-0.5-1.8-0.7-3-0.7c-2.1,0-3.8,1.6-3.8,4.9
		c0,2.9,1.4,4.4,3.3,4.4c1.4,0,2.5-0.8,3.6-2.1V25.3z"/>
	<path class="st0" d="M113.1,23.1c-2,0-3.3,1.3-4.2,2.7l-0.4-2.4h-1.2v11.8h1.7v-7.4c0.8-1.5,2.3-2.8,4.2-3.1V23.1z"/>
	<path class="st3" d="M79.7,52c-1.1,0-2.2-0.3-2.9-0.7l0.2-0.8c0.8,0.4,1.7,0.8,2.8,0.8c1.2,0,2-0.5,2-1.5c0-0.8-0.5-1.3-2.2-1.7
		c-1.7-0.5-2.5-1-2.5-2.3c0-1.2,1.1-2.1,2.7-2.1c0.9,0,1.7,0.2,2.4,0.5L81.9,45c-0.7-0.4-1.5-0.6-2.3-0.6c-1.3,0-1.8,0.6-1.8,1.3
		c0,0.7,0.5,1.1,1.9,1.5c1.8,0.5,2.8,1.1,2.8,2.5C82.5,51.2,81.3,52,79.7,52"/>
	<path class="st3" d="M87.9,44.4c-1.6,0-2.7,1.2-2.7,3.5c0,2.2,1.2,3.5,2.7,3.5c1.5,0,2.7-1.2,2.7-3.5
		C90.6,45.7,89.4,44.4,87.9,44.4 M87.9,52.1c-2,0-3.6-1.5-3.6-4.2c0-2.7,1.6-4.2,3.6-4.2c2,0,3.6,1.5,3.6,4.2
		C91.5,50.5,89.9,52.1,87.9,52.1"/>
	<path class="st3" d="M96.8,52.1c-2,0-3.6-1.5-3.6-4.2c0-2.7,1.6-4.2,3.6-4.2c1,0,1.9,0.4,2.6,0.9l-0.2,0.8c-0.8-0.7-1.6-1-2.5-1
		c-1.6,0-2.7,1.3-2.7,3.5c0,2.1,1.1,3.5,2.8,3.5c0.9,0,1.7-0.3,2.5-1l0.1,0.8C98.8,51.7,97.9,52.1,96.8,52.1"/>
	<path class="st3" d="M101.9,43.9h0.8v8h-0.8V43.9z M102.3,41.7c-0.4,0-0.7-0.3-0.7-0.7c0-0.4,0.3-0.7,0.7-0.7
		c0.4,0,0.7,0.3,0.7,0.7C103,41.4,102.7,41.7,102.3,41.7"/>
	<path class="st3" d="M110.4,47.5c-3.3,0.4-4.4,1.1-4.4,2.4c0,1,0.7,1.5,1.6,1.5c0.9,0,1.9-0.5,2.8-1.3V47.5z M110.6,51.9l-0.2-1.1
		c-0.8,0.7-1.8,1.2-2.9,1.2c-1.4,0-2.4-0.7-2.4-2.1c0-1.8,1.4-2.7,5.3-3.1v-0.7c0-1.1-0.7-1.7-1.8-1.7c-0.9,0-1.9,0.3-2.8,0.7
		l-0.1-0.8c0.9-0.4,1.8-0.7,2.9-0.7c1.7,0,2.5,0.8,2.5,2.4v5.8H110.6z"/>
	<polygon class="st3" points="114.1,51.9 114.1,39.9 114.9,39.7 114.9,51.9 	"/>
	<path class="st3" d="M121.9,43.9h0.8v8h-0.8V43.9z M122.3,41.7c-0.4,0-0.7-0.3-0.7-0.7c0-0.4,0.3-0.7,0.7-0.7
		c0.4,0,0.7,0.3,0.7,0.7C123,41.4,122.7,41.7,122.3,41.7"/>
	<path class="st3" d="M131.1,51.9v-5.6c0-1.2-0.6-1.9-1.7-1.9c-0.9,0-1.8,0.5-2.8,1.4v6h-0.8v-8h0.6l0.2,1.2c1-0.9,1.9-1.4,2.9-1.4
		c1.7,0,2.5,0.9,2.5,2.5v5.6H131.1z"/>
	<path class="st3" d="M134.8,43.9h0.8v8h-0.8V43.9z M135.2,41.7c-0.4,0-0.7-0.3-0.7-0.7c0-0.4,0.3-0.7,0.7-0.7
		c0.4,0,0.7,0.3,0.7,0.7C135.9,41.4,135.5,41.7,135.2,41.7"/>
	<path class="st3" d="M140.8,52c-1.2,0-1.9-0.5-1.9-1.8v-5.6h-1.3v-0.7h1.3V41l0.8-0.2v3h2l0.1,0.7h-2.1v5.5c0,0.9,0.4,1.3,1.3,1.3
		c0.3,0,0.6-0.1,0.8-0.1l0.1,0.7C141.7,52,141.3,52,140.8,52"/>
	<path class="st3" d="M144.2,43.9h0.8v8h-0.8V43.9z M144.6,41.7c-0.4,0-0.7-0.3-0.7-0.7c0-0.4,0.3-0.7,0.7-0.7
		c0.4,0,0.7,0.3,0.7,0.7C145.3,41.4,145,41.7,144.6,41.7"/>
	<path class="st3" d="M152.7,47.5c-3.3,0.4-4.4,1.1-4.4,2.4c0,1,0.7,1.5,1.6,1.5c0.9,0,1.9-0.5,2.8-1.3V47.5z M153,51.9l-0.2-1.1
		c-0.8,0.7-1.8,1.2-2.9,1.2c-1.4,0-2.4-0.7-2.4-2.1c0-1.8,1.4-2.7,5.3-3.1v-0.7c0-1.1-0.7-1.7-1.8-1.7c-0.9,0-1.9,0.3-2.8,0.7
		l-0.1-0.8c0.9-0.4,1.8-0.7,2.9-0.7c1.6,0,2.5,0.8,2.5,2.4v5.8H153z"/>
	<path class="st3" d="M158.6,52c-1.2,0-1.9-0.5-1.9-1.8v-5.6h-1.3v-0.7h1.3V41l0.8-0.2v3h2l0.1,0.7h-2.1v5.5c0,0.9,0.4,1.3,1.3,1.3
		c0.3,0,0.6-0.1,0.8-0.1l0.1,0.7C159.5,52,159,52,158.6,52"/>
	<path class="st3" d="M162,43.9h0.8v8H162V43.9z M162.4,41.7c-0.4,0-0.7-0.3-0.7-0.7c0-0.4,0.3-0.7,0.7-0.7c0.4,0,0.7,0.3,0.7,0.7
		C163.1,41.4,162.8,41.7,162.4,41.7"/>
	<polygon class="st3" points="168.7,52 168,52 164.9,44 165.7,43.8 168.4,51 170.9,43.9 171.8,43.9 	"/>
	<path class="st3" d="M173.9,47.2h4.9c-0.1-1.6-0.9-2.8-2.3-2.8C175,44.4,174.1,45.5,173.9,47.2 M176.6,52.1c-2.1,0-3.6-1.6-3.6-4.2
		c0-2.6,1.4-4.2,3.4-4.2c2.1,0,3.2,1.8,3.2,4v0.2h-5.7c0,2,1,3.5,2.8,3.5c1,0,2-0.5,2.8-1.2l0.1,0.8
		C178.8,51.6,177.8,52.1,176.6,52.1"/>
	<path class="st3" d="M184.2,52c-1.1,0-2.2-0.3-2.9-0.7l0.2-0.8c0.8,0.4,1.7,0.8,2.8,0.8c1.2,0,2-0.5,2-1.5c0-0.8-0.5-1.3-2.2-1.7
		c-1.7-0.5-2.5-1-2.5-2.3c0-1.2,1.1-2.1,2.7-2.1c0.9,0,1.7,0.2,2.4,0.5l-0.1,0.8c-0.7-0.4-1.5-0.6-2.3-0.6c-1.3,0-1.8,0.6-1.8,1.3
		c0,0.7,0.5,1.1,1.9,1.5c1.8,0.5,2.8,1.1,2.8,2.5C187.1,51.2,185.9,52,184.2,52"/>
</g>
</svg>
