<?xml version="1.0" encoding="utf-8"?>
<!-- Generator: Adobe Illustrator 19.2.0, SVG Export Plug-In . SVG Version: 6.00 Build 0)  -->
<svg version="1.1" id="Layer_1" xmlns="http://www.w3.org/2000/svg" xmlns:xlink="http://www.w3.org/1999/xlink" x="0px" y="0px"
	 viewBox="0 0 486.6 57.4" style="enable-background:new 0 0 486.6 57.4;" xml:space="preserve">
<style type="text/css">
	.st0{fill:#FFFFFF;}
</style>
<path class="st0" d="M11.4,40.1L10,50.9H3.2l1.4-10.7H0v-7.3h5.5l0.9-7.2H1.8v-7.2h5.5L8.7,7.8h6.8l-1.4,10.7h5.5L21,7.8h6.8
	l-1.4,10.7H31v7.2h-5.5l-0.8,7.2h4.6v7.2h-5.5l-1.4,10.8h-6.8L17,40.2L11.4,40.1L11.4,40.1z M17.9,32.9l0.9-7.2h-5.6l-0.9,7.2H17.9z
	"/>
<path class="st0" d="M56.2,6.5l10.9,44.4H54.8l-1.2-7.8h-9.2l-1.2,7.8H31.1L41.7,6.5H56.2z M48.9,15.6l-3.2,18.8h6.5L48.9,15.6
	L48.9,15.6z"/>
<path class="st0" d="M85.1,6.5l4.7,26.3h0.1l4.7-26.3h16.5v44.4h-10.8V17.8h-0.1L94,50.9h-8.3l-6.2-33.1h-0.1v33.1H68.5V6.5H85.1z"
	/>
<path class="st0" d="M133,6.5c2.2,0,4.1,0.4,5.7,1.1c1.6,0.7,3,1.7,4,2.9c1.1,1.2,1.8,2.7,2.3,4.3c0.5,1.7,0.7,3.5,0.7,5.4
	c0,4.6-1.2,8-3.7,10.3s-6.1,3.4-10.8,3.4h-4v17h-11.6V6.5H133z M129.4,25.6c1.4,0,2.6-0.4,3.3-1.3c0.8-0.9,1.1-2.2,1.1-4.1
	c0-3.6-1.5-5.4-4.5-5.4h-2.2v10.8C127.1,25.6,129.4,25.6,129.4,25.6z"/>
<path class="st0" d="M161,6.5v34.9h14.2v9.5h-25.8V6.5H161z"/>
<path class="st0" d="M189.3,6.5v44.4h-11.6V6.5H189.3z"/>
<path class="st0" d="M220.6,6.5v9.4h-14.7v7.6h13.8v9.1h-13.8v18.3h-11.5V6.5H220.6z"/>
<path class="st0" d="M220.8,6.5h12.5l4.3,15.5h0.1L242,6.5h12.7l-11.3,26.9v17.5h-11.6V33.4L220.8,6.5z"/>
<path class="st0" d="M307.8,37c0,5.3-1.2,9.1-3.7,11.3c-2.4,2.2-6,3.3-10.8,3.3s-8.3-1.2-10.4-3.6c-2.1-2.4-3.1-5.9-3.1-10.6v-0.9
	h10.4v2.2c0,2.1,0.3,3.5,0.8,4.2c0.6,0.7,1.3,1.1,2.1,1.1c0.9,0,1.6-0.4,2.1-1.1c0.6-0.7,0.8-2.1,0.8-4.2V6.5h11.6V37H307.8z"/>
<path class="st0" d="M323.5,38.5c0,2.2,0.3,3.6,0.9,4.3s1.5,1.1,2.5,1.1s1.9-0.4,2.5-1.1c0.6-0.7,0.9-2.2,0.9-4.3v-32h11.6v29.1
	c0,3.1-0.3,5.7-1,7.8s-1.6,3.7-2.9,5c-1.3,1.2-2.8,2.1-4.7,2.5c-1.9,0.5-4,0.7-6.5,0.7c-2.4,0-4.5-0.2-6.4-0.7s-3.5-1.3-4.7-2.5
	s-2.2-2.9-2.9-5c-0.7-2.1-1-4.7-1-7.8V6.5h11.6v32H323.5z"/>
<path class="st0" d="M364.2,18.2c0-1.3-0.3-2.5-0.8-3.4s-1.4-1.4-2.5-1.4c-1.2,0-2.2,0.4-2.7,1.2s-0.9,1.7-0.9,2.7
	c0,1.5,0.5,2.6,1.4,3.4s2.1,1.6,3.5,2.2s2.9,1.3,4.5,1.9s3.1,1.5,4.5,2.5s2.6,2.4,3.5,4.1s1.4,3.9,1.4,6.6c0,4.7-1.3,8.1-4,10.3
	c-2.7,2.1-6.6,3.2-11.7,3.2c-2.4,0-4.5-0.2-6.4-0.6s-3.4-1.1-4.7-2.1c-1.3-1-2.2-2.2-2.9-3.8c-0.7-1.6-1-3.5-1-5.8v-1.6h11.2v1.1
	c0,1.9,0.4,3.2,1.1,4s1.6,1.1,2.7,1.1c1.2,0,2.1-0.4,2.8-1.2c0.6-0.8,1-1.8,1-3c0-1.4-0.4-2.6-1.3-3.4c-0.9-0.8-2-1.6-3.4-2.2
	c-1.3-0.6-2.8-1.2-4.4-1.8c-1.6-0.6-3-1.4-4.4-2.4s-2.5-2.3-3.4-3.9s-1.3-3.7-1.3-6.3c0-4.5,1.2-8,3.6-10.3c2.4-2.4,6-3.5,10.9-3.5
	c5.1,0,8.7,1.1,11,3.3s3.4,5.6,3.4,10.4h-10.8L364.2,18.2L364.2,18.2z"/>
<path class="st0" d="M377.6,16.3V6.5h28.8v9.8h-8.7v34.6h-11.6V16.3H377.6z"/>
<path class="st0" d="M420.2,6.5v44.4h-11.6V6.5H420.2z"/>
<path class="st0" d="M442.1,14.8c-0.5-0.9-1.3-1.4-2.4-1.4c-0.9,0-1.6,0.2-2.1,0.7s-0.9,1.3-1.2,2.4c-0.3,1.2-0.4,2.7-0.5,4.7
	s-0.1,4.4-0.1,7.4s0,5.5,0.1,7.4c0.1,2,0.3,3.5,0.5,4.7c0.3,1.2,0.7,2,1.2,2.4c0.5,0.5,1.2,0.7,2.1,0.7c0.7,0,1.3-0.2,1.7-0.5
	c0.5-0.4,0.8-0.9,1.1-1.8c0.2-0.8,0.4-1.9,0.5-3.3c0.1-1.4,0.2-3.1,0.2-5.2h11.2v3.3c0,3.1-0.4,5.7-1.2,7.6c-0.8,2-1.9,3.6-3.3,4.7
	c-1.4,1.1-2.9,1.9-4.7,2.3c-1.8,0.4-3.6,0.6-5.4,0.6c-3.2,0-5.9-0.4-8-1.2s-3.7-2.1-4.8-3.9c-1.2-1.8-2-4.2-2.4-7.1
	c-0.4-2.9-0.7-6.5-0.7-10.6c0-4.2,0.3-7.8,0.8-10.7s1.4-5.3,2.6-7.1s2.9-3.1,4.9-3.9s4.5-1.2,7.5-1.2c2.6,0,4.8,0.3,6.6,1
	c1.8,0.7,3.3,1.6,4.4,2.8s2,2.7,2.5,4.4s0.8,3.7,0.8,5.8v2.8h-11.2v-2.5C442.9,17.4,442.6,15.7,442.1,14.8z"/>
<path class="st0" d="M484.8,6.5v9.4h-14.7v7.6h13.8v9.1h-13.8v8.8h15.3v9.5h-26.8V6.5H484.8z"/>
<g>
	<path class="st0" d="M279.2,47.7v3.2h-32v-3.2H279.2z"/>
</g>
</svg>
