<?xml version="1.0" encoding="utf-8"?>
<!-- Generator: Adobe Illustrator 19.2.0, SVG Export Plug-In . SVG Version: 6.00 Build 0)  -->
<svg version="1.1" id="Layer_1" xmlns="http://www.w3.org/2000/svg" xmlns:xlink="http://www.w3.org/1999/xlink" x="0px" y="0px"
	 viewBox="0 0 37.4 30.6" style="enable-background:new 0 0 37.4 30.6;" xml:space="preserve">
<g>
	<g>
		<path d="M29.6,4.3L27,2.1c-0.2-0.1-0.4-0.2-0.6-0.1c-0.2,0.1-0.3,0.3-0.3,0.5v0.9L21,4.2c-0.3,0.1-0.5,0.3-0.5,0.6
			c0,0.3,0.2,0.6,0.5,0.6l5.1,0.8V7c0,0.2,0.1,0.4,0.3,0.5c0.2,0.1,0.4,0.1,0.6-0.1l2.6-2.3c0.1-0.1,0.2-0.2,0.2-0.4
			C29.7,4.6,29.7,4.4,29.6,4.3z"/>
	</g>
	<g>
		<path d="M14.2,4.7c0-0.3-0.2-0.6-0.5-0.6L8.6,3.4V2.5c0-0.2-0.1-0.4-0.3-0.5C8.1,1.9,7.9,1.9,7.7,2L5.2,4.3C5,4.4,5,4.5,5,4.7
			C5,4.8,5,5,5.2,5.1l2.6,2.3c0.2,0.1,0.4,0.2,0.6,0.1c0.2-0.1,0.3-0.3,0.3-0.5V6l5.1-0.8C14,5.3,14.2,5,14.2,4.7z"/>
	</g>
	<g>
		<path d="M26.7,12.6c-0.6-0.1-1.2,0.2-1.5,0.6c-0.2-0.8-0.9-1.3-1.7-1.3c-0.5,0-1,0.2-1.3,0.6c-0.2-0.7-0.9-1.2-1.7-1.2
			c-0.5,0-0.9,0.2-1.2,0.5V5.1c0-0.9-0.6-1.7-1.5-1.8c-1.1-0.1-2,0.7-2,1.8v11.8c0,0.2-0.3,0.3-0.4,0.1l-2-3.1
			c-0.5-0.7-1.5-0.9-2.3-0.3c-0.8,0.5-1.1,1.6-0.6,2.3c0,0,5.7,8.7,5.8,8.7c1,1.4,2.7,2.3,4.5,2.3h2c3.1,0,5.6-2.5,5.6-5.5
			c0-0.1,0-0.1,0-0.1v-6.8C28.2,13.5,27.5,12.7,26.7,12.6z"/>
	</g>
</g>
</svg>
