<?xml version="1.0" encoding="utf-8"?>
<!-- Generator: Adobe Illustrator 19.2.0, SVG Export Plug-In . SVG Version: 6.00 Build 0)  -->
<svg version="1.1" id="Layer_1" xmlns="http://www.w3.org/2000/svg" xmlns:xlink="http://www.w3.org/1999/xlink" x="0px" y="0px"
	 viewBox="0 0 24.8 25" style="enable-background:new 0 0 24.8 25;" xml:space="preserve">
<style type="text/css">
	.st0{fill:#FFFFFF;}
</style>
<g>
	<g>
		<path class="st0" d="M24.6,2.4L22,0.1C21.9,0,21.6,0,21.4,0.1c-0.2,0.1-0.3,0.3-0.3,0.5v0.9L16,2.2c-0.3,0.1-0.5,0.3-0.5,0.6
			c0,0.3,0.2,0.6,0.5,0.6l5.1,0.8v0.9c0,0.2,0.1,0.4,0.3,0.5c0.2,0.1,0.4,0.1,0.6-0.1l2.6-2.3c0.1-0.1,0.2-0.2,0.2-0.4
			C24.8,2.7,24.7,2.5,24.6,2.4z"/>
	</g>
	<g>
		<path class="st0" d="M9.2,2.8c0-0.3-0.2-0.6-0.5-0.6L3.6,1.4V0.5c0-0.2-0.1-0.4-0.3-0.5C3.1,0,2.9,0,2.8,0.1L0.2,2.4
			C0.1,2.5,0,2.6,0,2.8s0.1,0.3,0.2,0.4l2.6,2.3c0.2,0.1,0.4,0.2,0.6,0.1C3.5,5.4,3.6,5.2,3.6,5V4.1l5.1-0.8C9,3.4,9.2,3.1,9.2,2.8z
			"/>
	</g>
	<g>
		<path class="st0" d="M21.7,10.7c-0.6-0.1-1.2,0.2-1.5,0.6c-0.2-0.8-0.9-1.3-1.7-1.3c-0.5,0-1,0.2-1.3,0.6
			c-0.2-0.7-0.9-1.2-1.7-1.2c-0.5,0-0.9,0.2-1.2,0.5V3.2c0-0.9-0.6-1.7-1.5-1.8c-1.1-0.1-2,0.7-2,1.8V15c0,0.2-0.3,0.3-0.4,0.1
			l-2-3.1c-0.5-0.7-1.5-0.9-2.3-0.3c-0.8,0.5-1.1,1.6-0.6,2.3c0,0,5.7,8.7,5.8,8.7c1,1.4,2.7,2.3,4.5,2.3h2c3.1,0,5.6-2.5,5.6-5.5
			c0-0.1,0-0.1,0-0.1v-6.8C23.2,11.6,22.6,10.8,21.7,10.7z"/>
	</g>
</g>
</svg>
