<?xml version="1.0" encoding="utf-8"?>
<!-- Generator: Adobe Illustrator 19.2.0, SVG Export Plug-In . SVG Version: 6.00 Build 0)  -->
<svg version="1.1" id="Layer_1" xmlns="http://www.w3.org/2000/svg" xmlns:xlink="http://www.w3.org/1999/xlink" x="0px" y="0px"
	 viewBox="0 0 81.1 66.8" style="enable-background:new 0 0 81.1 66.8;" xml:space="preserve">
<style type="text/css">
	.st0{fill:#FFFFFF;}
</style>
<title>cheeseburger</title>
<g>
	<path class="st0" d="M1.5,41.8C1.1,52.5,9.1,56.9,9.1,56.9c0.2-0.1,3.2-1.6,5.6-8.7L1.5,41.8z"/>
	<path class="st0" d="M46.4,1.5c-7.7,0-27.3,2.6-27.9,27.6c-0.6,25-8.5,28.7-8.5,28.7c28.5,15.2,65,9.1,61-35.1
		C70.9,6.3,54,1.5,46.4,1.5z M57.3,13.3c4.2,0,7.5,3.5,7.5,7.9s-3.4,7.9-7.5,7.9s-7.5-3.5-7.5-7.9S53.1,13.3,57.3,13.3z"/>
	<path class="st0" d="M71.8,23.5c0.4,4.7,0.3,9-0.2,12.9c0,0,0,0,0,0.1l8-6.6L71.8,23.5L71.8,23.5z"/>
	<path class="st0" d="M60.6,21.2c0,1.9-1.5,3.5-3.3,3.5S54,23.1,54,21.2c0-1.9,1.5-3.5,3.3-3.5S60.6,19.2,60.6,21.2z"/>
</g>
</svg>
