<?xml version="1.0" encoding="utf-8"?>
<!-- Generator: Adobe Illustrator 19.2.0, SVG Export Plug-In . SVG Version: 6.00 Build 0)  -->
<svg version="1.1" id="Layer_1" xmlns="http://www.w3.org/2000/svg" xmlns:xlink="http://www.w3.org/1999/xlink" x="0px" y="0px"
	 viewBox="0 0 81.1 66.8" style="enable-background:new 0 0 81.1 66.8;" xml:space="preserve">
<style type="text/css">
	.st0{fill:#FFFFFF;}
</style>
<g>
	<rect x="11.8" y="27" class="st0" width="14.4" height="35.1"/>
	<path class="st0" d="M50.1,4.7c-3.2,0-4.8,8-9.6,14.4c-3,4.1-6.5,7.5-10.7,10.2l-0.5,0.2V60c6.8,1.7,13.8,1.9,20.7,2.2
		c0,0,6.4,0,9.6,0c3.2,0,4.8-1.6,4.8-4c0-2.4-1.6-2.4-1.6-4s3.2-1.6,3.2-4s-1.6-2.4-1.6-4c0-1.6,3.2-1.6,3.2-4s-1.6-2.4-1.6-4
		s3.2-1.6,3.2-4c0-2.4-1.6-4-6.4-4c-11.2,0-16,0-14.4-3.2c1.8-3.5,4.8-11.2,4.8-17.5C53.3,6.3,52.6,4.7,50.1,4.7z"/>
</g>
</svg>
