<?xml version="1.0" encoding="utf-8"?>
<!-- Generator: Adobe Illustrator 19.2.0, SVG Export Plug-In . SVG Version: 6.00 Build 0)  -->
<svg version="1.1" id="Layer_1" xmlns="http://www.w3.org/2000/svg" xmlns:xlink="http://www.w3.org/1999/xlink" x="0px" y="0px"
	 viewBox="0 0 81.1 66.8" style="enable-background:new 0 0 81.1 66.8;" xml:space="preserve">
<style type="text/css">
	.st0{fill:#FFFFFF;}
</style>
<g>
	<path class="st0" d="M22.6,23.6c3.4-6.4,10.1-10.8,17.8-10.8s14.4,4.4,17.8,10.8h13.8V12.8c0-6-4.8-10.8-10.8-10.8H25.9v13.7h-1.5
		V2h-0.5v13.7h-1.5V2h-0.5v13.7h-1.5V2H20v13.7h-1.5V2.1c-5.3,0.7-9.3,5.2-9.3,10.7v10.8H22.6z M55.8,8.8c0-1.3,1-2.3,2.3-2.3h5.2
		c1.3,0,2.3,1,2.3,2.3v5.2c0,1.3-1,2.3-2.3,2.3h-5.2c-1.3,0-2.3-1-2.3-2.3V8.8z"/>
	<path class="st0" d="M59.4,26.5c0.7,2,1,4.1,1,6.4c0,11.1-9,20.1-20.1,20.1s-20.1-9-20.1-20.1c0-2.2,0.4-4.4,1-6.4H9.2V54
		c0,6,4.8,10.8,10.8,10.8h41.2c6,0,10.8-4.8,10.8-10.8V26.5H59.4z"/>
	<circle class="st0" cx="40.4" cy="32.9" r="13.4"/>
</g>
</svg>
