<?xml version="1.0" encoding="utf-8"?>
<!-- Generator: Adobe Illustrator 19.2.0, SVG Export Plug-In . SVG Version: 6.00 Build 0)  -->
<svg version="1.1" xmlns="http://www.w3.org/2000/svg" xmlns:xlink="http://www.w3.org/1999/xlink" x="0px" y="0px"
	 viewBox="0 0 964.3 437.4" style="enable-background:new 0 0 964.3 437.4;" xml:space="preserve">
<style type="text/css">
	.st0{fill-rule:evenodd;clip-rule:evenodd;fill:#E95425;}
	.st1{fill-rule:evenodd;clip-rule:evenodd;fill:#FCEE25;}
	.st2{fill:#5A646A;}
</style>
<g id="logo">
	<path class="st0" d="M746.7,152.3c0,0,0-42.9,0-53.4c0-18,8.6-31.1,31.1-31.1c30,0,64.9,0,81,0c39.8,0,53.2,20.1,53.2,42.3
		c0,24.8-16.7,42.3-53.2,42.3C830.7,152.3,746.7,152.3,746.7,152.3z M572.5,87.3c-6.1-20.6-6.8-23-14.4-23c-7.8,0-9.9,5.7-14.9,25
		c-4.8,18.7-17.9,63-17.9,63h65.8C591.2,152.4,578.5,107.1,572.5,87.3z M654.9,231.5c5.9,19.9,12.5,31.7,28.8,31.7
		c18.2,0,23.8-11.5,23.8-27.8c0-7.2,0-27,0-46.1h-64.9C642.6,189.2,650.7,217,654.9,231.5z M514.9,189.2h86.7
		c0,0,10.8,38.1,15.9,56.5c9.2,33,26.1,54.3,62.3,54.3c46.5,0,66.9-27.6,66.9-59.7c0-12.2,0-51.1,0-51.1s85.1,0,116.1,0
		c66,0,91.2-34.2,91.2-79.2c0-48.3-28-79.1-91.2-79.1c-12.6,0-78.6,0-91.2,0c-38.9,0-64.1,21.1-64.1,60.3c0,10.1,0,34.9,0,61.2
		h-76.2c0,0-16.2-55.5-24.1-82.5c-8.9-30.6-21.9-43.4-47.9-43.4c-31.7,0-40.9,16.3-50.4,50.1c-12,42.6-34.8,119.5-45.2,156
		c-3.4,11.9-6,29.6-19.1,29.6c-11.2,0-12.7-10-16.2-24.8c-7.1-30.6-34.4-152.2-38.3-169.5c-5.5-24.3-16-41.4-44.7-41.4
		c-24.5,0-40.6,12.4-46.7,41c-7,32.6-31.1,145.8-37.5,174.9c-1.8,8.1-3.5,19.8-13.3,19.8c-9.9,0-11.5-11.7-13.3-19.8
		c-6.4-29.1-30.5-142.1-37.5-174.9c-6.1-28.6-20.9-41-45.4-41c-27.8,0-39.5,17.3-46,41.4C100.3,88.1,45.6,291.9,36.2,326
		c-17.4,4-30.4,19.6-30.4,38.3c0,21.7,17.6,39.3,39.3,39.3c21.7,0,39.3-17.6,39.3-39.3c0-10.6-4.2-20.1-10.9-27.2
		c6.7-26.2,55.3-218.6,63.1-248.9c5.2-20.2,8.3-23.8,14.5-23.8c6.6,0,9.2,5.4,12.4,21.3c7.7,38.1,24.1,118.5,32.2,155.9
		c9.3,42.8,22.6,58.5,52.4,58.5s43.1-15.7,52.4-58.5c8.1-37.4,24.5-118,32.2-155.9c3.2-15.9,6.7-21.3,13.6-21.3
		c6.2,0,9,3.3,13.2,23.8c4.1,20.3,23.7,116.2,32.3,156.2c7.4,34.3,19.7,55.6,53.3,55.6c33.6,0,44.6-22,53.9-53.8
		C506.7,219.4,514.9,189.2,514.9,189.2z"/>
	<circle class="st1" cx="45.1" cy="364.3" r="25.9"/>
</g>
<g id="type">
	<path class="st2" d="M155.6,380.1h-9.3v-29.9h-0.8l-8.4,27.8c-0.5,1.6-0.9,2.1-2.5,2.1h-4.2c-1.6,0-2-0.5-2.5-2.1l-8.5-28.1h-0.7
		v30.2h-9v-41h13c1.7,0,2.3,0.5,2.8,2.2l7,24.5h0.7l6.8-24.5c0.5-1.7,1-2.2,2.8-2.2h12.8V380.1z"/>
	<path class="st2" d="M166.1,349.7c1.3-1.3,2.8-1.8,5.7-1.8h11.7c3.3,0,5.2,0.6,6.4,1.8c1.5,1.5,1.9,3.2,1.9,8.6v21.8h-9v-3.7
		c-3.9,3.2-5.3,3.8-8.1,3.8h-4.4c-2.9,0-4.4-0.4-5.7-1.6c-1.1-1.1-1.9-3-1.9-7.2c0-4,0.6-6.4,2-7.9c1.5-1.5,3.3-2.2,9.1-2.2
		c3.1,0,6.3,0.4,9,0.9v-2.9c0-3.2-0.2-3.8-0.6-4.3c-0.4-0.4-1-0.5-2.3-0.5h-4.6c-1.2,0-1.9,0.1-2.2,0.5c-0.5,0.5-0.5,1.1-0.6,3h-8.4
		C164.2,352.8,164.8,351,166.1,349.7z M183,372.1v-5.4H177c-3.4,0-4.2,0.2-4.8,0.8c-0.6,0.6-0.7,1.3-0.7,2.8c0,1.6,0.1,2.5,0.6,3
		c0.5,0.5,1.1,0.5,2.3,0.5h2.5C178.8,373.8,180,373.6,183,372.1z"/>
	<path class="st2" d="M199.7,380.1v-43.3h9v23.7h2l9.2-12.7h9.7l-11.7,15.4l12.3,16.8h-10.6l-9-12.8h-2v12.8H199.7z"/>
	<path class="st2" d="M240.6,366c0.1,5.1,0.4,6.4,0.8,6.9c0.4,0.5,1.3,0.6,2.9,0.6h5.5c1.8,0,2.3-0.2,2.6-0.6
		c0.3-0.4,0.4-1.2,0.5-3.5h8.3c-0.1,4.8-0.6,7.3-2.2,8.9c-1,1-2.3,1.9-5.7,1.9h-12c-3.3,0-5-0.5-6.4-2c-2.1-2.1-2.9-4.6-2.9-14.1
		c0-9.5,0.8-12,2.9-14.2c1.3-1.4,3.1-1.9,6.4-1.9h10.9c3.3,0,5,0.5,6.4,1.9c2.1,2.1,2.6,4.6,2.6,13.9v1.1c0,0.9-0.2,1.3-1.3,1.3
		H240.6z M240.6,361h11.9c0-4.3-0.3-5.5-0.7-6c-0.4-0.4-0.9-0.5-2.7-0.5h-4.9c-1.5,0-2.5,0.1-2.9,0.6
		C241,355.5,240.7,356.5,240.6,361z"/>
	<path class="st2" d="M304.7,369.9h-14.1l-3,10.2H278l12.7-38.5c0.8-2.2,1.2-2.7,3.3-2.7h7.9c2.1,0,2.6,0.5,3.3,2.7l12.7,38.5h-10.2
		L304.7,369.9z M292.7,362.7h9.9l-4.6-15.2h-0.8L292.7,362.7z"/>
	<path class="st2" d="M322.7,380.1v-32.2h9v4.9c3.3-3.5,5-5,7.6-5h3.5v8.8h-4.2c-2.5,0-4.3,0.2-6.9,1.3v22.2H322.7z"/>
	<path class="st2" d="M367.2,378.9l-3.2,0.8c-1.4,0.4-3.8,0.7-6.2,0.7c-3,0-4.7-0.6-5.8-1.8c-1.1-1.1-1.5-2.5-1.5-5.8v-17.9h-5v-7h5
		v-8h9v8h7.7v7h-7.7v15.5c0,1.4,0.1,1.9,0.4,2.2c0.3,0.2,0.9,0.4,2.3,0.4h4.9V378.9z"/>
	<path class="st2" d="M389.9,348.7l5.6,26.7h0.7l6.2-25.3c0.3-1.2,0.7-1.5,1.9-1.5h2.8c1.2,0,1.6,0.3,1.9,1.5l6.3,25.3h0.7l5.6-26.7
		h4.2l-6.9,30c-0.2,1.2-0.7,1.5-1.9,1.5H414c-1.2,0-1.6-0.4-1.9-1.5l-6.2-24.9h-0.6l-6.2,24.9c-0.2,1.1-0.7,1.5-1.9,1.5h-3.1
		c-1.2,0-1.6-0.3-1.9-1.5l-6.9-30H389.9z"/>
	<path class="st2" d="M436.7,342.9h-5.2v-5.6h5.2V342.9z M436.2,380.1h-4.3v-31.4h4.3V380.1z"/>
	<path class="st2" d="M461,379.2l-2.8,0.7c-1.1,0.2-2.6,0.5-4.2,0.5c-2.1,0-3.5-0.4-4.6-1.5c-1.1-1.1-1.3-2.4-1.3-4.9v-21.5h-5.4
		v-3.8h5.4v-7.9h4.4v7.9h8.6v3.8h-8.6v20.5c0,1.6,0.2,2.3,0.6,2.8c0.4,0.4,1,0.6,2.8,0.6h5.2V379.2z"/>
	<path class="st2" d="M468.3,380.1v-42.2h4.3v15c4.1-3.3,5.6-4.2,8.9-4.2h4.6c2.9,0,4.3,0.5,5.5,1.6c1.2,1.2,1.6,2.9,1.6,6.3v23.5
		h-4.3v-23.2c0-1.8-0.2-2.8-0.9-3.5c-0.6-0.6-1.2-0.9-3.5-0.9h-4.1c-2.6,0-4.4,0.7-7.7,2.8v24.7H468.3z"/>
	<path class="st2" d="M541.3,364.4c-1.4,1.2-3.6,1.7-7,1.7h-13v14h-9.6v-41h22.6c3.3,0,5.6,0.4,7,1.6c1.9,1.7,3.5,4.3,3.5,12
		C544.8,360.1,543.1,362.8,541.3,364.4z M530.5,358.6c2.2,0,2.8-0.1,3.2-0.5c0.6-0.6,1.2-1.6,1.2-5.6c0-4-0.6-5-1.2-5.5
		c-0.4-0.4-1.1-0.5-3.2-0.5h-9.3v12.1H530.5z"/>
	<path class="st2" d="M579.2,347.9v32.2h-9v-4.3c-4.1,3.7-5.5,4.3-8.4,4.3h-3.9c-2.8,0-4.6-0.6-5.8-1.8c-1.3-1.3-1.9-3-1.9-7.7
		v-22.7h9v21.7c0,1.3,0.2,2.1,0.7,2.6c0.5,0.5,1.1,0.7,2.6,0.7h2.6c1.5,0,2.9-0.4,5-1.3v-23.8H579.2z"/>
	<path class="st2" d="M587,380.1v-32.2h9v4.9c3.3-3.5,5-5,7.6-5h3.5v8.8h-4.2c-2.5,0-4.3,0.2-6.9,1.3v22.2H587z"/>
	<path class="st2" d="M621.5,347.9v4.2c4-3.5,5.4-4.2,8.1-4.2h3.4c3.5,0,5.2,0.5,6.7,2c1.9,1.9,2.6,4.9,2.6,14.2
		c0,9.3-0.9,12.2-2.9,14.1c-1.5,1.5-3.3,2.1-6.6,2.1h-3.5c-2.7,0-4.2-0.6-7.9-3.7v13h-9v-41.6H621.5z M621.5,356.3v15.4
		c1.9,0.9,3.3,1.2,4.8,1.2h3.2c1.6,0,2.4-0.2,2.9-0.7c0.8-0.8,1-2.3,1-8.3c0-6-0.2-7.5-1-8.3c-0.5-0.5-1.3-0.8-2.9-0.8h-3.1
		C624.8,354.9,623.4,355.4,621.5,356.3z"/>
	<path class="st2" d="M651.4,378.1c-2.1-2.1-2.9-5-2.9-14.1c0-9.1,0.8-12,2.9-14.2c1.3-1.4,3.1-1.9,6.4-1.9h11c3.3,0,5,0.5,6.4,1.9
		c2.1,2.2,2.9,5,2.9,14.2c0,9.1-0.8,12-2.9,14.1c-1.4,1.5-3.1,2-6.4,2h-11C654.5,380.1,652.8,379.6,651.4,378.1z M658.1,372.4
		c0.4,0.5,0.8,0.6,2.3,0.6h5.6c1.5,0,2-0.2,2.3-0.6c0.5-0.5,0.8-1.5,0.8-8.4c0-6.9-0.3-8-0.8-8.5c-0.4-0.4-0.8-0.5-2.3-0.5h-5.6
		c-1.5,0-2,0.1-2.3,0.5c-0.5,0.5-0.8,1.6-0.8,8.5C657.4,370.9,657.6,371.9,658.1,372.4z"/>
	<path class="st2" d="M709.9,378.7c-1,1-2.4,1.4-4.7,1.4h-13.6c-2.9,0-4.6-0.5-5.6-1.5c-1.2-1.3-1.8-3-1.9-8.7h8
		c0.1,2.4,0.2,2.9,0.5,3.3c0.2,0.3,0.6,0.4,1.7,0.4h7.6c1.1,0,1.6-0.2,1.8-0.4c0.2-0.2,0.4-0.7,0.4-2.5c0-1.5-0.1-2-0.5-2.3
		c-0.3-0.3-0.7-0.5-2.2-0.6l-10.5-1.2c-2.5-0.3-3.8-0.8-4.7-1.7c-1.3-1.3-1.6-2.8-1.6-7.3s0.9-6.9,2.2-8.1c1-1,2.3-1.5,4.7-1.5h12.8
		c2.9,0,4.6,0.5,5.5,1.4c1.3,1.3,1.8,3.2,1.9,8.6h-8c-0.1-2.4-0.2-2.7-0.5-3c-0.2-0.3-0.6-0.4-1.7-0.4h-6.7c-1.1,0-1.5,0.1-1.8,0.4
		c-0.3,0.3-0.5,0.7-0.5,2.2c0,1.5,0.1,2,0.5,2.3c0.4,0.3,0.7,0.4,2.1,0.6l10.8,1.2c2.5,0.2,3.7,0.8,4.6,1.6c1.2,1.2,1.5,3.3,1.5,7.4
		C712.1,375.1,711.2,377.3,709.9,378.7z"/>
	<path class="st2" d="M726.7,366c0.1,5.1,0.4,6.4,0.8,6.9c0.4,0.5,1.3,0.6,2.9,0.6h5.5c1.8,0,2.3-0.2,2.6-0.6
		c0.3-0.4,0.4-1.2,0.5-3.5h8.3c-0.1,4.8-0.6,7.3-2.2,8.9c-1,1-2.3,1.9-5.7,1.9h-12c-3.3,0-5-0.5-6.4-2c-2.1-2.1-2.9-4.6-2.9-14.1
		c0-9.5,0.8-12,2.9-14.2c1.4-1.4,3.1-1.9,6.4-1.9h10.9c3.3,0,5,0.5,6.4,1.9c2.1,2.1,2.6,4.6,2.6,13.9v1.1c0,0.9-0.2,1.3-1.3,1.3
		H726.7z M726.7,361h11.9c0-4.3-0.3-5.5-0.7-6c-0.4-0.4-0.9-0.5-2.7-0.5h-4.9c-1.5,0-2.5,0.1-2.9,0.6
		C727,355.5,726.7,356.5,726.7,361z"/>
</g>
</svg>
