<?xml version="1.0" encoding="utf-8"?>
<!-- Generator: Adobe Illustrator 19.2.0, SVG Export Plug-In . SVG Version: 6.00 Build 0)  -->
<svg version="1.1" id="Layer_1" xmlns="http://www.w3.org/2000/svg" xmlns:xlink="http://www.w3.org/1999/xlink" x="0px" y="0px"
	 viewBox="0 0 873.3 374.4" style="enable-background:new 0 0 873.3 374.4;" xml:space="preserve">
<style type="text/css">
	.st0{fill:#FFFFFF;}
	.st1{fill:#A0A0A0;}
</style>
<path class="st0" d="M440.2,140.2c11.4-6.5,22.7-10.7,35-12c58.8-6.1,112,24.1,125.9,88.9c7.3,33.9,4.4,66.8-14.6,96.7
	c-21.7,34.3-53.8,52.8-93.7,57.5c-30.3,3.5-59.6-1-86.8-15.1c-19.9-10.3-36.7-24.6-51.7-41.2c-4.2-4.6-4.2-7.6,0-12.2
	c12.6-13.8,25.2-27.5,38-41.1c7-7.4,9.6-7.2,17.1-0.8c9.9,8.4,20.1,16.6,31.3,23.2c20.5,12.1,49.9,11.1,66.5-2.7
	c16.8-14,19.9-32.4,14.8-52.6c-4.6-18-19.6-29.5-38.9-32.5c-23.4-3.7-40.6,6.5-55.5,22.8c-1.5,1.6-3,3.2-4.4,4.7
	c-2.9,3-6.3,3.5-10,2c-14.3-5.8-28.7-11.5-43-17.4c-8.5-3.5-9.4-5.6-8.1-14.5c5.5-39.4,10.9-78.8,16.4-118.3
	c2.9-20.9,5.9-41.9,9-62.8c1.3-8.9,4.2-11.2,13.3-11.2c53.8,0.1,107.7,0.2,161.5,0.3c1.8,0,3.7,0.2,5.5,0.3c3.9,0.2,5.7,2.4,5.7,6.1
	c0,19.2,0.1,38.3,0,57.5c0,6.3-2.5,8.5-9,8.6c-6.8,0.1-13.7,0-20.5,0c-29.7,0-59.3,0.1-89-0.1c-4.6,0-6.4,0.7-7,5.9
	C445.8,100,443,119.6,440.2,140.2z"/>
<path class="st0" d="M332.6,107.7c-0.1,26.8-8.4,50.7-26.2,71c-1.6,1.9-2.5,3-0.3,5.2c49.4,49.7,39.2,138.7-34,174
	c-46.8,22.6-100.4,14.4-138.1-21.3c-14-13.3-24.3-29.5-34.1-46c-2.1-3.6-1-6.6,2-8.7c16-11.3,32-22.8,48.7-33.2
	c5.9-3.7,8.8-2.9,13.4,2.4c7.2,8.3,14,17,22,24.6c9.5,9.1,20.2,15.6,34.2,15.1c18.4-0.7,34-14.5,35.5-31.7
	c1.7-19.4-10.7-36.1-29.7-39.5c-8.7-1.6-17.5-2.4-26.2-3.9c-2.9-0.5-5.8-1.6-8.5-2.7c-5.3-2.3-7.8-6.5-7.9-12.2
	c-0.4-13.2-0.3-26.3,1-39.4c0.7-7.6,3.5-11,11.1-12.8c10.8-2.5,22-3.5,32.6-7.1c21.5-7.4,30.3-28.5,20.1-47.9
	c-6.2-11.6-21.4-19-35.7-17.5c-11.9,1.3-22,6-30.1,15c-5.5,6.1-11.2,11.9-16.9,17.7c-4.3,4.3-8.1,4.8-12.9,1.2
	c-14.4-10.9-27.6-23-41.2-34.9c-2.8-2.4-3.6-6-1.5-9.1c13.9-20.5,28.8-40.3,50.9-52.7C181.4,1.8,204.1-0.4,227.2,1
	c28.9,1.7,54.5,11.6,75.2,32.6C322.9,53.9,332.8,78.8,332.6,107.7z"/>
<path class="st1" d="M80.4,237.7c0,6.5-0.1,13,0,19.5c0.1,5-1.2,8.9-6.1,10.9c-4.4,1.8-8.7,0.2-12.5-4.8
	c-13.5-17.5-27-35.1-40.4-52.7c-6.2-8.1-12.4-16.1-18.5-24.2c-3.8-5-3.8-8.5,0-13.5c19.6-25.5,39.2-50.9,58.8-76.4
	c3.8-4.9,8.4-6.6,13-4.9c5.2,2,6.3,6.5,6.3,11.4c0,13.2,0.2,26.3-0.1,39.5c-0.1,4.7,1.1,6.4,6.1,6.3c10.8-0.4,21.6-0.1,32.5-0.1
	c9,0,11.6,2.3,11.8,11.4c0.2,11,0.1,22,0.1,33c0,2.2,0.1,4.3,0,6.5c-0.3,9.5-3.3,12.6-12.7,12.8c-10,0.2-20,0-30,0.1
	c-9.3,0.1-8-0.9-8.1,7.8C80.2,226,80.4,231.9,80.4,237.7z"/>
<path class="st0" d="M873.3,187.5c0.1,0,0.1,0,0.2,0c0-21.3,0-42.7,0-64c0-11.2-0.9-22.3-3.8-33.1C854,30.7,795.5-7.6,734,1.3
	c-61.1,8.9-104.6,59.1-104.6,120.8c0,44,0,88,0,132c0,8.2,0.8,16.3,2.6,24.3c16.4,74.3,96,116.2,166.2,86.3
	c47.1-20,73-56.5,75.1-108.2C874.2,233.5,873.3,210.5,873.3,187.5z M790.5,188.8c0,24,0,48,0,72c0,21.4-16.7,38.6-37.8,39.2
	c-21.9,0.6-40.2-15.8-40.4-37.6c-0.4-49.1-0.4-98.3,0-147.4c0.2-21.4,18.7-38.1,40-37.5c21.4,0.6,38.1,17.6,38.1,38.9
	C790.5,140.5,790.5,164.7,790.5,188.8z"/>
</svg>
