<svg width="270" height="59" viewBox="0 0 270 59" xmlns="http://www.w3.org/2000/svg"><g fill="#FFF" fill-rule="evenodd"><path d="M29.68 53.644V40.268H16.304v5.852h6.82v4.4c-1.716 1.232-3.916 1.848-6.38 1.848-5.456 0-9.328-4.136-9.328-9.768v-.088c0-5.236 3.916-9.592 8.844-9.592 3.564 0 5.676 1.144 8.052 3.124l4.268-5.148c-3.212-2.728-6.556-4.224-12.1-4.224C7.152 26.672.332 33.844.332 42.6v.088c0 9.108 6.6 15.84 16.192 15.84 5.632 0 9.988-2.2 13.156-4.884zM43.276 58V27.2H36.5V58h6.776zm34.32 0l-7.524-11c3.916-1.452 6.6-4.576 6.6-9.548v-.088c0-6.336-4.356-10.164-11.616-10.164h-14.08V58h6.776v-9.856h5.324l6.6 9.856h7.92zm-7.788-20.196c0 2.596-1.892 4.356-5.192 4.356h-6.864v-8.844h6.732c3.3 0 5.324 1.496 5.324 4.4v.088zM104.92 58v-6.16H89.564V27.2h-6.776V58h22.132zm27.368-9.108v-.088c0-5.368-3.52-7.612-9.768-9.24-5.324-1.364-6.644-2.024-6.644-4.048v-.088c0-1.496 1.364-2.684 3.96-2.684s5.28 1.144 8.008 3.036l3.52-5.104c-3.124-2.508-6.952-3.916-11.44-3.916-6.292 0-10.78 3.696-10.78 9.284v.088c0 6.116 4.004 7.832 10.208 9.416 5.148 1.32 6.204 2.2 6.204 3.916v.088c0 1.804-1.672 2.904-4.444 2.904-3.52 0-6.424-1.452-9.196-3.74l-4.004 4.796c3.696 3.3 8.404 4.928 13.068 4.928 6.644 0 11.308-3.432 11.308-9.548zm46.156 4.136l-4.312-4.356c-2.42 2.2-4.576 3.608-8.096 3.608-5.28 0-8.932-4.4-8.932-9.68v-.088c0-5.28 3.74-9.592 8.932-9.592 3.08 0 5.5 1.32 7.876 3.476l4.312-4.972c-2.86-2.816-6.336-4.752-12.144-4.752-9.46 0-16.06 7.172-16.06 15.928v.088c0 8.844 6.732 15.84 15.796 15.84 5.94 0 9.46-2.112 12.628-5.5zM205.988 58v-6.16h-15.356V27.2h-6.776V58h22.132zm30.58-13.42V27.2h-6.776v17.644c0 4.884-2.508 7.392-6.644 7.392s-6.644-2.596-6.644-7.612V27.2h-6.776v17.6c0 9.064 5.06 13.684 13.332 13.684 8.272 0 13.508-4.576 13.508-13.904zm33.088 4.972v-.088c0-4.136-2.2-6.204-5.764-7.568 2.2-1.232 4.048-3.168 4.048-6.644v-.088c0-4.84-3.872-7.964-10.164-7.964h-14.3V58h14.652c6.952 0 11.528-2.816 11.528-8.448zm-8.448-13.156c0 2.288-1.892 3.256-4.884 3.256h-6.248V33.14h6.688c2.86 0 4.444 1.144 4.444 3.168v.088zm1.716 12.32c0 2.288-1.804 3.344-4.796 3.344h-8.052v-6.776h7.832c3.476 0 5.016 1.276 5.016 3.344v.088zM8.372 2.58h5.405V.9H1.127v1.68h5.405V17h1.84V2.58zM28.29 9.754V17h1.817V.9H28.29v7.153h-9.292V.9H17.18V17H19V9.755h9.292zM46.3.9H34.66V17h11.754v-1.656h-9.936V9.71h8.786V8.052h-8.786V2.556h9.82V.9zM56.97 17h10.88v-1.68h-9.062V.9H56.97V17zm29.027-8.073c0-4.462-3.29-8.303-8.188-8.303-4.9 0-8.235 3.887-8.235 8.35 0 4.46 3.29 8.302 8.188 8.302 4.9 0 8.234-3.887 8.234-8.35zm-1.886.046c0 3.68-2.62 6.624-6.3 6.624-3.68 0-6.35-2.99-6.35-6.67 0-3.68 2.623-6.624 6.303-6.624 3.68 0 6.348 2.99 6.348 6.67zm10.236 5.336L89.746.9h-1.978l5.75 16.215h1.518l4.44-13.064 4.415 13.065h1.542L111.182.9h-1.91l-4.6 13.41L100.258.853h-1.495L94.346 14.31zM126.11.9h-11.64V17h11.754v-1.656h-9.936V9.71h8.786V8.052h-8.786V2.556h9.82V.9zM143.197 17l-4.945-6.578c2.53-.46 4.37-2.024 4.37-4.715 0-2.898-2.277-4.807-5.82-4.807h-6.922V17h1.818v-6.256h4.6l4.67 6.256h2.23zm-2.415-11.224c0 2.093-1.725 3.335-4.14 3.335h-4.945V2.58h4.968c2.6 0 4.117 1.195 4.117 3.196zM165.048.9H153.41V17h11.753v-1.656h-9.936V9.71h8.786V8.052h-8.786V2.556h9.82V.9zm11.43-.115h-1.7L167.44 17h1.863l1.91-4.255h8.762L181.86 17h1.956L176.48.785zm2.784 10.327h-7.337l3.68-8.21 3.657 8.21zm8.81-6.187c0-1.472 1.333-2.622 3.426-2.622 1.656 0 3.15.53 4.646 1.748l1.058-1.402C195.57 1.338 193.89.67 191.544.67c-3.06 0-5.29 1.84-5.29 4.416 0 2.668 1.702 3.864 5.405 4.67 3.38.712 4.185 1.563 4.185 3.08 0 1.634-1.426 2.76-3.588 2.76-2.23 0-3.84-.758-5.52-2.276l-1.127 1.334c1.932 1.725 4.025 2.576 6.578 2.576 3.197 0 5.497-1.794 5.497-4.577 0-2.484-1.656-3.795-5.244-4.577-3.54-.76-4.37-1.61-4.37-3.15zm19.066-2.346h5.405V.9h-12.65v1.68h5.405V17h1.84V2.58zm9.867 2.345c0-1.472 1.334-2.622 3.427-2.622 1.656 0 3.15.53 4.646 1.748l1.058-1.402c-1.633-1.31-3.312-1.978-5.658-1.978-3.06 0-5.29 1.84-5.29 4.416 0 2.668 1.702 3.864 5.405 4.67 3.38.712 4.186 1.563 4.186 3.08 0 1.634-1.427 2.76-3.59 2.76-2.23 0-3.84-.758-5.52-2.276l-1.126 1.334c1.932 1.725 4.025 2.576 6.578 2.576 3.197 0 5.497-1.794 5.497-4.577 0-2.484-1.657-3.795-5.245-4.577-3.542-.76-4.37-1.61-4.37-3.15zM230.483.9V17h1.817V.9h-1.817zm20.677 8.027c0-4.554-3.496-8.027-8.556-8.027h-5.59V17h5.59c5.06 0 8.556-3.52 8.556-8.073zm-1.886.046c0 3.588-2.6 6.348-6.67 6.348h-3.772V2.58h3.772c4.07 0 6.67 2.805 6.67 6.393zM266.64.9H255V17h11.754v-1.656h-9.936V9.71h8.786V8.052h-8.786V2.556h9.82V.9z"/></g></svg>