<svg xmlns="http://www.w3.org/2000/svg" width="368" height="70" viewBox="0 0 368 70"><path fill="#FFF" d="M27.398 68.311L6.83 7.887 1.442 6.678l.464-5.016h28.335l.465 5.016-6.039 1.209 14.658 44.498L53.931 7.887l-6.689-1.209.465-5.016h18.395l.464 5.016-4.923 1.209-20.425 57.576zM78.522 44.211c.465 7.339 4.832 12.913 11.706 12.913 4.831 0 9.477-2.044 11.613-3.529l2.508 4.551c-5.388 5.018-10.219 7.247-18.673 10.033-13.75 0-23.318-9.196-23.318-22.017 0-9.477 3.251-20.253 23.226-25.827 13.377 0 18.951 8.268 18.951 18.022v5.854H78.522zM89.3 38.45c0-7.06-1.301-11.519-5.11-11.519-3.623 0-5.759 4.645-5.759 12.356L89.3 38.45zM131.129 37.15l8.97-15.8h9.694l.01 15.684h-12.368l-5.562 5.505v18.023l10.033 1.207-.464 5.109h-29.729l-.464-5.109 4.831-1.207V29.346l-4.831.186-.465-5.295 12.914-2.508 5.76-.372zM179.335 20.335c13.843 0 19.139 3.809 19.139 14.028v17.93c0 3.53.186 5.296 1.021 6.967h4.366l.743 5.11-18.674 3.81-3.065-7.618-10.498 7.618c-8.919 0-15.329-5.018-15.329-12.821 0-4.459 2.044-7.989 4.738-10.126l20.438-6.316v-5.761c0-5.667-2.043-6.317-4.18-6.317-1.672 0-3.065.371-4.366 1.208l-1.06 9.039-14.178-.024v-9.114l20.905-7.613zm2.88 23.132l-7.246 2.881c-1.487 1.486-2.23 4.459-2.23 6.781 0 4.274 2.322 6.225 4.181 6.225 1.486 0 2.787-.742 3.902-1.486l1.393-.93V43.467zM224.221 21.316h2.944v17.32h-2.944zM242.232 33.639V21.317h2.847v17.321h-3.118l-6.855-12.324v12.324h-2.845V21.317h3.118zM252.251 32.971c0 2.251 1.41 3.539 3.365 3.539 1.583 0 2.846-1.015 2.846-2.574 0-1.756-1.56-2.326-2.746-2.746-3.168-1.114-5.716-2.079-5.716-5.543 0-2.87 2.474-4.75 5.369-4.75 3.117 0 5.518 2.202 5.518 5.419h-2.846c0-1.708-.989-2.87-2.599-2.87-1.41 0-2.598.742-2.598 2.202 0 1.41 1.237 2.078 2.524 2.549 2.697.964 5.938 2.104 5.938 5.418 0 3.563-2.722 5.444-5.938 5.444-3.143 0-5.963-2.202-5.963-6.086h2.846zM267.838 23.865h-4.28v-2.548h11.43v2.548h-4.304v14.772h-2.846zM278.525 21.316h2.944v17.32h-2.944zM289.288 23.865h-4.28v-2.548h11.43v2.548h-4.304v14.772h-2.846zM299.852 21.317h2.846v11.53c0 1.979 1.335 3.662 3.365 3.662 2.078 0 3.414-1.682 3.414-3.662v-11.53h2.846v11.53c0 3.366-2.449 6.21-6.26 6.21-3.736 0-6.211-2.845-6.211-6.21v-11.53zM320.016 23.865h-4.282v-2.548h11.432v2.548h-4.306v14.772h-2.844zM333.549 23.865v4.899h7.15v2.549h-7.15v4.775h7.15v2.549h-9.997v-17.32h9.997v2.548zM223.354 58.202c0-4.702 3.391-9.081 8.958-9.081 5.566 0 8.957 4.379 8.957 9.081 0 4.7-3.391 9.08-8.957 9.08-5.568 0-8.958-4.38-8.958-9.08m14.92 0c0-3.366-2.276-6.532-5.963-6.532s-5.963 3.166-5.963 6.532c0 3.365 2.276 6.532 5.963 6.532s5.963-3.167 5.963-6.532M248.343 52.09v5.493h7.15v2.549h-7.15v6.729h-2.846v-17.32h9.996v2.549zM277.735 61.244c0 3.366-2.028 6.038-5.666 6.038-3.589 0-5.617-2.697-5.617-6.062h2.846c0 2.055.916 3.515 2.771 3.515 1.88 0 2.819-1.437 2.819-3.49V49.541h2.847v11.703zM282.583 49.541h2.846v11.53c0 1.979 1.335 3.663 3.364 3.663 2.079 0 3.415-1.684 3.415-3.663v-11.53h2.846v11.53c0 3.365-2.449 6.211-6.261 6.211-3.735 0-6.21-2.846-6.21-6.211v-11.53zM302.104 61.195c0 2.251 1.41 3.539 3.365 3.539 1.583 0 2.845-1.016 2.845-2.574 0-1.757-1.559-2.326-2.746-2.746-3.167-1.113-5.715-2.078-5.715-5.543 0-2.87 2.473-4.75 5.369-4.75 3.117 0 5.518 2.201 5.518 5.418h-2.846c0-1.708-.99-2.869-2.599-2.869-1.41 0-2.598.741-2.598 2.201 0 1.41 1.237 2.078 2.524 2.549 2.696.965 5.938 2.104 5.938 5.418 0 3.563-2.723 5.444-5.938 5.444-3.144 0-5.964-2.202-5.964-6.087h2.847zM317.69 52.09h-4.28v-2.549h11.43v2.549h-4.304v14.771h-2.846zM328.377 49.541h2.945v17.321h-2.945zM352.871 61.294c-.766 3.366-3.958 5.988-8.214 5.988-5.667 0-9.105-4.231-9.105-9.106 0-4.7 3.365-9.056 8.808-9.056 5.146 0 7.968 2.994 8.512 6.73h-2.993c-.421-2.375-2.302-4.182-5.146-4.182-3.983 0-6.261 3.118-6.261 6.507 0 3.563 2.352 6.558 6.558 6.558 2.005 0 4.156-1.46 4.726-3.439h3.115zM359.922 52.09v4.898h7.149v2.549h-7.149v4.775h7.149v2.549h-9.996v-17.32h9.996v2.549z"/></svg>