<?xml version="1.0" encoding="utf-8"?>
<!-- Generator: Adobe Illustrator 19.2.0, SVG Export Plug-In . SVG Version: 6.00 Build 0)  -->
<svg version="1.1" id="Layer_0_xA0_Image_1_" xmlns="http://www.w3.org/2000/svg" xmlns:xlink="http://www.w3.org/1999/xlink"
	 x="0px" y="0px" viewBox="0 0 192.5 223.4" style="enable-background:new 0 0 192.5 223.4;" xml:space="preserve">
<style type="text/css">
	.st0{fill:#FFFFFF;}
	.st1{fill:none;}
</style>
<path class="st0" d="M167.4,167.7c0.1,0.8,0.2,1.5,0.1,2.2c-0.3,2.6-0.2,5.4-1,7.9c-0.9,2.4-2.7,4.5-4.2,6.6
	c-1.2,1.8-2.9,3.1-4.6,4.5c-1.6,1.4-3,3.1-4.6,4.4c-2.5,2-3.1,4.7-3.7,7.6c-0.2,1.1-0.4,2.4-1.1,3c-0.9,0.8-1.1,1.6-1.4,2.6
	c-0.1,0.5-0.4,1.2-0.9,1.5c-3.4,2.7-7.6,3.7-11.7,4.5c-3.4,0.7-7.1,0.5-10.6,0.5c-4.3,0-8.6-0.3-12.9-0.4c-1.3,0-2.6,0.3-3.9,0.2
	c-2.8-0.3-5.6-0.8-8.4-1.1c-0.4,0-1,0.1-1.2,0.3c-0.3,0.5-0.6,1.2-0.6,1.7c0,1.1,0.9,1.6,1.7,1.7c1.7,0.3,3.5,0.4,5.2,0.5
	c4.1,0.2,8.1,0.2,12.2,0.3c0.6,0,1.2,0.1,1.8,0.1c3,0.1,6,0.5,8.9,0.3c3.2-0.2,6.4-0.9,9.6-1.4c0.7-0.1,1.3-0.4,2-0.7
	c1.3-0.5,2.6-1,3.8-1.5c1.4-0.6,2.8-1,4.1-1.8c1.6-1,3-2.3,4.5-3.5c0.1-0.1,0.2-0.2,0.2-0.3c0.7-1.8,1.7-3.6,2-5.4
	c0.6-3.4,1.5-6.4,4.5-8.5c1.6-1.2,2.8-3,4.4-4.2c4-2.9,5.4-7.4,7.5-11.4c1.3-2.6,1.1-5.6,0.8-8.6
	C169.7,167.4,169.7,167.3,167.4,167.7z"/>
<path class="st0" d="M132.4,206c0.2,0.8,0.3,1.5,0.5,2.3c0.3,1.1,1.4,1.7,2.5,1.4c0.9-0.3,1.1-1,0.7-2.2c-0.7-2.1,0.7-5.3,2.5-6.6
	c1.8-1.2,3.5-3,3-5.3c-0.6-2.5-0.1-4.6,0.9-6.7c0.1-0.1,0.1-0.2,0.1-0.3c0.7-1.2,1.4-2.3,2.2-3.5c0.2-0.4,0.6-0.7,0.7-1.1
	c0.3-0.9,0-1.3-0.9-1.3c-1.2,0-2.2,0.5-2.8,1.5c-1.1,1.9-2,3.9-3.2,5.7c-0.8,1.2-1,2.4-0.8,3.7c0.2,1.5,0.9,3.1-0.6,4.4
	c-0.1,0.1-0.1,0.4-0.2,0.5c-0.3,0.4-0.6,1-1,1.2C133.5,201.2,132.9,203.5,132.4,206z"/>
<path class="st0" d="M126.4,210c1.6,0,1.7-0.1,1.4-1.6c-0.2-0.8-0.4-1.6-0.6-2.4c-0.5-1.9,0.4-4.1,1.9-5.4c1.3-1.1,2.2-2.5,1.7-4.4
	c-0.1-0.3-0.1-0.7-0.1-0.9c0.6-2.1,1.4-4.1,2.8-5.7c0.7-0.8,1.6-1.6,2.2-2.5c0.7-1.1,1.2-2.4,1.5-3.7c0.2-1.1-0.5-1.5-1.5-0.8
	c-0.5,0.3-1,0.7-1.3,1.2c-1.3,2.3-3.1,4.1-4.8,6.1c-1.7,1.9-2.7,4.2-2.3,6.8c0.2,1.4-0.2,2.3-1.1,3.1c-0.3,0.3-0.7,0.6-0.9,0.9
	c-1.3,1.4-1.7,3.2-1.6,5c0,1,0.6,2,0.9,3.1C124.9,209.6,125.4,210.1,126.4,210z"/>
<path class="st0" d="M145.3,161c0-0.1,0-0.3,0-0.4c-0.4-0.2-0.9-0.6-1.3-0.5c-2.5,0.4-5.2,0.8-6.9,2.7c-2.3,2.6-4.7,5.4-4.4,9.4
	c0.1,0.8-0.3,1.3-1.2,1.5c-0.7,0.1-1.4,0.4-2,0.6c-1.4,0.6-1.8,1.7-1.6,3.2c0.1,0.7-0.1,1.4-0.3,2.1c-0.7,1.7-0.7,1.7,0.8,2.8
	c0.2-0.1,0.4-0.4,0.7-0.4c2-0.3,2.6-1.8,2.7-3.6c0.2-2.3,0.6-2.8,2.8-3.5c1.6-0.4,2-0.9,2-2.5c0-1.6,0.2-3,1-4.4
	c1.3-2.3,2.4-4.9,5.3-5.8C143.6,162,144.4,161.5,145.3,161z"/>
<path class="st0" d="M127,186.5c-1.8-1.2-2.1-1.3-3.3-0.1c-1.9,1.9-3.7,3.8-5.4,5.9c-0.9,1.1-1.4,2.7-0.9,4.2c1,2.7,0.6,5.1-1.6,7
	c-0.1,0.1-0.2,0.2-0.2,0.3c-0.1,0.7-0.3,1.5-0.1,2.2c0.4,1.5,1.9,1.6,3,2c0.3,0.1,0.9,0,1.1-0.3c0.2-0.2,0.3-0.8,0.2-1.1
	c-0.8-1.6-0.8-2.4,0.5-3.6c1.5-1.3,1.9-2.7,1.3-4.5c-1.3-3.6,0.5-6.4,2.6-9.1C125,188.4,126,187.5,127,186.5z"/>
<path class="st0" d="M141.5,205.4c0.5,0.5,0.9,1.4,1.3,1.4c1.4,0,2.4-0.2,2.5-1.4c0.1-1.6,0.7-2.9,2-3.8c1.1-0.8,1.3-1.6,0.7-2.8
	c-1.1-2.3-1-4.4,0.6-6.6c1.3-1.7,2.8-3.1,4.4-4.5c0.6-0.5,1.2-1.2,1.4-1.9c0.2-0.5-0.3-1.2-0.4-1.8c-0.6,0.2-1.3,0.2-1.7,0.6
	c-1.1,0.8-2,1.8-3,2.7c-2.3,2-4,4.4-5.1,7.2c-0.3,0.8-0.3,2.1,0.1,2.8c0.7,1.3,0.6,2.3-0.2,3.4c-0.4,0.5-0.7,1.1-1,1.6
	C142.5,203.3,142.1,204.2,141.5,205.4z"/>
<path class="st0" d="M150.2,164.8c0-0.2-0.1-0.3-0.1-0.5c-0.7-0.1-1.3-0.3-2-0.3c-2.4,0.3-4.8,3.3-4.7,5.7c0,1-0.3,2.1-0.8,2.9
	c-0.7,1.1-1.8,1.9-2.6,3c-0.7,1-1.4,2.1-1.8,3.3c-0.4,1.2,0.4,2.1,1.6,2.3c1.3,0.2,2-0.4,2.5-1.6c0.5-1.2,1.1-2.5,1.9-3.5
	c1.3-1.6,2.8-3.1,3-5.4C147.4,168.5,147.8,166.1,150.2,164.8z"/>
<path class="st0" d="M152.5,159.5c1.4-0.1,1.9-0.7,1.3-1.7c-1.3-2.1-1.1-4.3-0.4-6.6c0.3-1,0.9-1.7,2.1-1.5c0.8,0.1,1.3-0.2,1.5-1
	c0.1-0.2,0.3-0.5,0.5-0.5c0.8-0.2,1.6-0.2,2.4-0.4c0.4-0.1,1.1-0.7,1.1-0.9c-0.1-0.6-0.4-1.6-0.8-1.7c-1.2-0.3-2.4-0.4-3.6-0.2
	c-1.7,0.3-2.9,1.4-3.9,2.7c-0.9,1.1-2.2,2.1-2.9,3.3c-1.1,2-1.7,4.3-1.1,6.7c0.1,0.4,0.6,0.8,1,1C150.6,159,151.5,159.2,152.5,159.5
	z"/>
<path class="st0" d="M150,175.6c0.6,1,0.6,0.9-0.2,1.5c-0.5,0.4-1,0.8-1.5,1.2c-0.7,0.7-0.6,1.8,0,2.2c1.4,0.9,1.9,0.8,2.9-0.6
	c0.2-0.3,0.3-0.7,0.6-0.7c1.7-0.4,1.6-1.8,1.9-3.1c0.1-0.5,0.4-0.9,0.6-1.3c0.5-1.5,1.3-3,1.3-4.5c0-1.9,0.4-3.4,1.5-4.8
	c0,0,0-0.1-0.1-0.4c-1.7-0.3-2.9,0.7-4,1.8c-0.4,0.4-0.8,1.1-0.7,1.7C152.5,171.3,151.8,173.6,150,175.6z"/>
<path class="st0" d="M163.6,173.3c-0.3-1.6-0.5-2.9-1-4.1c-0.2-0.5-1.3-1.1-1.8-1c-0.9,0.2-1,1-0.8,2c0.4,1.8,0.6,3.8-0.8,5.4
	c-0.2,0.3-0.2,0.7-0.3,1.1c-0.2,0.5-0.4,1-0.6,1.5c-0.4,0.9-1.1,1.7-1.3,2.6c-0.3,1.1,0.6,1.5,1.5,1.8c0.9,0.3,1.1-0.4,1.4-1.1
	c0.8-1.8,1.8-3.5,2.6-5.3C162.9,175.2,163.2,174.1,163.6,173.3z"/>
<path class="st0" d="M167.4,167.7c2.3-0.4,2.3-0.3,2.6,1.8c0.4,2.9,0.6,6-0.8,8.6c-2.1,4.1-3.5,8.6-7.5,11.4c-1.6,1.2-2.8,3-4.4,4.2
	c-3,2.1-3.9,5.2-4.5,8.5c-0.4,1.9-1.3,3.6-2,5.4c0,0.1-0.1,0.2-0.2,0.3c-1.5,1.2-2.9,2.5-4.5,3.5c-1.2,0.8-2.7,1.3-4.1,1.8
	c-1.3,0.5-2.5,1-3.8,1.5c-0.7,0.2-1.3,0.6-2,0.7c-3.2,0.5-6.4,1.2-9.6,1.4c-3,0.2-6-0.2-8.9-0.3c-0.6,0-1.2-0.1-1.8-0.1
	c-4.1-0.1-8.1-0.2-12.2-0.3c-1.7-0.1-3.5-0.2-5.2-0.5c-0.8-0.1-1.7-0.6-1.7-1.7c0-0.6,0.2-1.2,0.6-1.7c0.2-0.3,0.8-0.4,1.2-0.3
	c2.8,0.3,5.6,0.8,8.4,1.1c1.3,0.1,2.6-0.2,3.9-0.2c4.3,0.1,8.6,0.4,12.9,0.4c3.5,0,7.2,0.2,10.6-0.5c4.1-0.8,8.3-1.8,11.7-4.5
	c0.4-0.3,0.7-1,0.9-1.5c0.2-1,0.5-1.8,1.4-2.6c0.7-0.6,0.9-2,1.1-3c0.6-2.8,1.2-5.6,3.7-7.6c1.7-1.3,3-3.1,4.6-4.4
	c1.7-1.4,3.4-2.7,4.6-4.5c1.5-2.2,3.3-4.2,4.2-6.6c0.9-2.4,0.8-5.2,1-7.9C167.6,169.2,167.5,168.4,167.4,167.7z"/>
<path class="st0" d="M132.4,206c0.5-2.5,1.1-4.8,3.5-6.3c0.4-0.3,0.7-0.8,1-1.2c0.1-0.2,0.1-0.4,0.2-0.5c1.5-1.3,0.9-2.9,0.6-4.4
	c-0.2-1.4,0-2.5,0.8-3.7c1.2-1.8,2.1-3.8,3.2-5.7c0.6-1.1,1.6-1.5,2.8-1.5c0.9,0,1.3,0.4,0.9,1.3c-0.2,0.4-0.5,0.7-0.7,1.1
	c-0.7,1.2-1.5,2.3-2.2,3.5c-0.1,0.1-0.1,0.2-0.1,0.3c-1.1,2.1-1.5,4.2-0.9,6.7c0.5,2.3-1.1,4.1-3,5.3c-1.8,1.2-3.2,4.4-2.5,6.6
	c0.4,1.3,0.2,2-0.7,2.2c-1,0.3-2.2-0.3-2.5-1.4C132.7,207.6,132.6,206.8,132.4,206z"/>
<path class="st0" d="M126.4,210c-1,0.1-1.6-0.4-1.8-1.4c-0.2-1-0.8-2-0.9-3.1c-0.1-1.8,0.3-3.6,1.6-5c0.3-0.3,0.6-0.6,0.9-0.9
	c1-0.8,1.4-1.7,1.1-3.1c-0.4-2.6,0.6-4.9,2.3-6.8c1.7-1.9,3.5-3.8,4.8-6.1c0.3-0.5,0.8-0.9,1.3-1.2c0.9-0.6,1.7-0.2,1.5,0.8
	c-0.3,1.3-0.8,2.6-1.5,3.7c-0.6,0.9-1.5,1.7-2.2,2.5c-1.5,1.6-2.3,3.6-2.8,5.7c-0.1,0.3,0,0.6,0.1,0.9c0.5,1.9-0.3,3.3-1.7,4.4
	c-1.5,1.3-2.4,3.5-1.9,5.4c0.2,0.8,0.4,1.6,0.6,2.4C128.2,209.8,128,210,126.4,210z"/>
<path class="st0" d="M145.3,161c-0.9,0.4-1.7,1-2.6,1.3c-2.9,0.9-4,3.5-5.3,5.8c-0.8,1.3-1,2.8-1,4.4c0,1.6-0.4,2-2,2.5
	c-2.2,0.6-2.6,1.1-2.8,3.5c-0.1,1.8-0.6,3.2-2.7,3.6c-0.3,0-0.5,0.3-0.7,0.4c-1.6-1.1-1.5-1.1-0.8-2.8c0.3-0.6,0.4-1.4,0.3-2.1
	c-0.2-1.5,0.2-2.6,1.6-3.2c0.6-0.3,1.3-0.5,2-0.6c0.9-0.1,1.3-0.6,1.2-1.5c-0.3-3.9,2.1-6.8,4.4-9.4c1.7-1.9,4.4-2.3,6.9-2.7
	c0.4-0.1,0.9,0.3,1.3,0.5C145.3,160.8,145.3,160.9,145.3,161z"/>
<path class="st0" d="M127,186.5c-1,1-2.1,1.9-2.9,3c-2,2.7-3.8,5.4-2.6,9.1c0.6,1.8,0.2,3.2-1.3,4.5c-1.3,1.2-1.3,2-0.5,3.6
	c0.1,0.3,0.1,0.9-0.2,1.1c-0.2,0.2-0.8,0.4-1.1,0.3c-1.2-0.4-2.6-0.6-3-2c-0.2-0.7,0-1.5,0.1-2.2c0-0.1,0.1-0.2,0.2-0.3
	c2.3-1.9,2.6-4.3,1.6-7c-0.5-1.5-0.1-3,0.9-4.2c1.7-2.1,3.5-4,5.4-5.9C124.9,185.2,125.3,185.3,127,186.5z"/>
<path class="st0" d="M141.5,205.4c0.6-1.2,1-2.1,1.4-3c0.3-0.6,0.6-1.1,1-1.6c0.8-1.1,0.9-2.1,0.2-3.4c-0.4-0.8-0.4-2-0.1-2.8
	c1.1-2.8,2.8-5.2,5.1-7.2c1-0.9,2-1.9,3-2.7c0.5-0.3,1.1-0.4,1.7-0.6c0.2,0.6,0.6,1.3,0.4,1.8c-0.2,0.7-0.8,1.4-1.4,1.9
	c-1.7,1.3-3.2,2.7-4.4,4.5c-1.6,2.1-1.7,4.3-0.6,6.6c0.6,1.2,0.5,2-0.7,2.8c-1.2,0.9-1.9,2.2-2,3.8c-0.1,1.2-1.1,1.4-2.5,1.4
	C142.4,206.8,141.9,205.9,141.5,205.4z"/>
<path class="st0" d="M150.2,164.8c-2.3,1.4-2.7,3.7-3,6c-0.3,2.3-1.7,3.7-3,5.4c-0.8,1-1.4,2.3-1.9,3.5c-0.4,1.2-1.2,1.8-2.5,1.6
	c-1.2-0.2-2-1.1-1.6-2.3c0.4-1.2,1-2.3,1.8-3.3c0.8-1.1,1.9-1.9,2.6-3c0.5-0.8,0.8-1.9,0.8-2.9c0-2.4,2.3-5.4,4.7-5.7
	c0.6-0.1,1.3,0.2,2,0.3C150.1,164.4,150.1,164.6,150.2,164.8z"/>
<path class="st0" d="M152.5,159.5c-0.9-0.3-1.9-0.5-2.7-0.8c-0.4-0.2-0.9-0.6-1-1c-0.6-2.4,0-4.6,1.1-6.7c0.7-1.3,1.9-2.2,2.9-3.3
	c1.1-1.3,2.3-2.5,3.9-2.7c1.2-0.2,2.4-0.1,3.6,0.2c0.4,0.1,0.8,1.1,0.8,1.7c0,0.3-0.7,0.8-1.1,0.9c-0.8,0.2-1.6,0.3-2.4,0.4
	c-0.2,0-0.5,0.3-0.5,0.5c-0.2,0.8-0.7,1.1-1.5,1c-1.2-0.2-1.8,0.6-2.1,1.5c-0.7,2.2-0.9,4.4,0.4,6.6
	C154.4,158.8,153.9,159.4,152.5,159.5z"/>
<path class="st0" d="M150,175.6c1.8-2,2.5-4.3,2.3-7c0-0.5,0.3-1.2,0.7-1.7c1-1.1,2.2-2.1,4-1.8c0,0.2,0.1,0.3,0.1,0.4
	c-1.2,1.4-1.6,2.9-1.5,4.8c0,1.5-0.8,3-1.3,4.5c-0.1,0.4-0.4,0.8-0.6,1.3c-0.3,1.2-0.2,2.7-1.9,3.1c-0.2,0.1-0.4,0.5-0.6,0.7
	c-1,1.5-1.5,1.6-2.9,0.6c-0.7-0.4-0.7-1.5,0-2.2c0.4-0.5,0.9-0.9,1.5-1.2C150.5,176.5,150.5,176.6,150,175.6z"/>
<path class="st0" d="M163.6,173.3c-0.3,0.9-0.7,1.9-1.2,2.9c-0.9,1.8-1.8,3.5-2.6,5.3c-0.3,0.7-0.5,1.3-1.4,1.1
	c-0.9-0.2-1.8-0.7-1.5-1.8c0.3-0.9,0.9-1.7,1.3-2.6c0.2-0.5,0.4-1,0.6-1.5c0.1-0.4,0.1-0.8,0.3-1.1c1.4-1.7,1.2-3.6,0.8-5.4
	c-0.2-1-0.2-1.8,0.8-2c0.6-0.1,1.6,0.5,1.8,1C163.1,170.4,163.2,171.7,163.6,173.3z"/>
<path d="M25,157.9c1,0.7,2,1.3,3,2c0.1-0.1,0.2-0.2,0.3-0.4c-1-0.6-2.1-1.2-3.1-1.9C25.1,157.8,25.1,157.8,25,157.9z"/>
<path class="st1" d="M29,134.4c-0.7-1.8-1.8-3.5-2-5.6c0-0.4-0.2-0.9-0.4-1.2c-0.1-0.2-0.5-0.5-0.7-0.5c-0.2,0-0.6,0.4-0.5,0.6
	c0,1.4-0.1,3,0.3,4.3c2,5.7,4.2,11.3,6.2,16.9c0.7,1.9,2,2.8,4,3.8c-0.2-0.8-0.3-1.3-0.5-1.8c-1.8-4.5-3.6-9-5.4-13.5
	C29.5,136.5,29.4,135.4,29,134.4z"/>
<path class="st0" d="M186.5,142.2c-1.4-2.8-3.5-5.1-5.5-7.4c-2.5-2.9-5-5.8-7.4-8.7c-1.4-1.7-2.7-3.5-3.9-5.3
	c-1.1-1.6-2.1-3.4-3-5.1c-0.3-0.6-0.6-1.3-0.5-1.9c0.8-3,1.2-6.1,1.4-9.3c0.1-0.7,0.2-1.5,0.3-2.2c0.2-0.9,0.5-1.9,0.7-2.8
	c0.1-0.5,0.4-1.2,0.2-1.3c-0.3-0.3-1-0.4-1.5-0.3c-2.2,0.4-2.7,2.3-3.1,4.1c-0.5,2-0.8,3.9-1.2,6.3c-0.6-0.5-1-0.8-1.3-1.2
	c-2.2-3.4-3.8-7.1-5.2-10.8c-0.2-0.4,0-1,0.1-1.5c0.4-1.3,1.1-2.6,0.1-4c-0.3-0.4-0.1-1.1,0-1.6c0.1-0.5,0.6-0.9,0.6-1.4
	c0.1-0.6,0.1-1.4-0.2-1.7c-0.3-0.3-1.1-0.3-1.7-0.2c-0.7,0.1-1.1,0.1-1.2-0.7c-0.1-0.7-0.2-1.3-0.4-2c-1.6-7.7-4.4-15-7.9-21.9
	c-1.9-3.8-3.9-7.5-5.9-11.2c-1.8-3.2-3.6-6.5-5.6-9.5c-1.5-2.3-3.4-4.3-5.1-6.5c-0.5-0.6-0.6-0.9,0.3-1.5c2.5-1.6,5.1-3.1,7.2-5.4
	c1.3-1.5,2.7-2.9,3.1-5c0.4-2.2,1.4-4.3,0.4-6.5c-0.3-0.6-0.7-1.3-0.9-1.9c-0.6-1.7-1.8-3-3.3-3.9c-2.2-1.3-4.8-1.7-7.3-1.9
	c-3.2-0.4-6.2,0.4-8.9,2c-2.4,1.4-4.8,1-7.1,0.4c-2-0.5-3.8-1.6-5.6-2.6c-5.8-3-11.7-3-17.8-0.8c-3,1.1-6.1,0.9-9.1,0.1
	c-2.3-0.6-4.7-1.1-7.1-1.4c-1-0.1-2.1,0.4-3.2,0.7c-2.7,0.6-5.8,0.3-8,2.5c-0.1,0.1-0.4,0.1-0.6,0.2c-2.4,1.1-4.7,2.2-7.1,3.4
	c-0.7,0.4-1.5,0.7-2.2,1.2c-1.1,0.9-2,1.9-3,2.8c-0.5,0.5-1.1,1-1.8,1.2c-2,0.6-3.6,2-5.1,3.3c-1.1,1-1.9,2.3-3.5,2.8
	c-1.9,0.6-3.6,1.7-5.5,2.3c-1.9,0.6-4.1,0.6-5.9,1.4c-2.5,1.1-5,2.4-7.2,4c-4.3,3.1-7,7.6-8.9,12.4c-1,2.7-1.7,5.5-2.5,8.2
	c-0.5,1.6-1.1,3.3-1.3,4.9c-0.4,2.4-0.6,4.9-0.8,7.3c-0.3,2.8-0.8,5.6-0.9,8.4c-0.3,4.3-0.3,8.6-0.4,12.9c0,1.1-0.1,2.2,0,3.3
	c0.1,1.5,0.3,3.1,0.5,4.6c0.2,1.6,0.3,3.2,0.6,4.7c0.5,2.6,1.2,5.2,1.8,7.7c0.5,2.3,0.9,4.6,1.6,6.8c0.9,3,2.1,6,3.1,9
	c0.6,1.6,0.9,3.2,1.6,4.7c1.7,3.6,3.6,7.2,5.4,10.7c1,1.9,2.1,3.7,3.2,5.7c0.7-0.4,0.4-1,0.2-1.6c-0.7-1.7-1.6-3.3-2.2-5
	c-1-2.6-1.9-5.1-2.7-7.8c-0.3-1.1-0.1-2.3-0.1-3.4c0.1,0,0.3-0.1,0.4-0.1c0.3,0.4,0.7,0.7,0.9,1.2c1.5,3.4,2.9,6.7,4.3,10.1
	c0.5,1.1,0.8,2.3,1.3,3.4c0.5,1.5,1.1,2.9,1.7,4.3c0.3,0.8,0.7,1.5,1,2.3c0.3,0.9,0.6,1.7,1,2.7c-0.6,0-0.8,0.1-1,0
	c-1.2-0.4-2.3-0.7-3.1,0.8c-0.3,0.6-0.8,0.9-0.2,1.5c0.2,0.2,0.3,0.7,0.4,1.1c-1.9-0.2-3.2,0.6-3.5,2.3c-0.2,1.1-0.6,1.4-1.6,1.8
	c-0.7,0.3-1.2,0.9-1.7,1.6c-0.2,0.2,0.2,0.9,0.3,1.3c0.1,0.3,0.1,0.6,0.1,1c-0.6-0.1-1-0.1-1.4-0.2c-1.1-0.2-1.9,0.1-2.4,1.4
	c-0.4,0.9,0.4,1.4,1,1.9c1.9,1.4,4,2.5,5.7,4.1c3.2,3,6.9,5.6,9.7,9.1c0.7,0.9,1.6,1.6,2.4,2.5c0.6,0.6,1.2,1.1,1.7,1.7
	c3.2,4.4,6.3,8.9,9.5,13.3c0.7,1,1.5,1.9,2.3,2.8c0.1-0.1,0.2-0.1,0.3-0.2c-1-2.2-1.9-4.6-3-6.7c-3.2-6.1-7.7-11.3-11.8-16.7
	c-1.1-1.5-2.3-2.9-3.4-4.4c0.1-0.1,0.2-0.2,0.3-0.3c0.5,0.2,1,0.3,1.4,0.6c1.3,1,2.6,1.9,3.8,3c2.3,2.2,4.6,4.5,6.9,6.7
	c0.4,0.4,0.9,0.7,1.2,1.1c1.6,2.1,3.2,4.3,4.8,6.4c1,1.3,2.1,2.5,3.1,3.8c1.1,1.4,2.3,2.8,3.3,4.3c0.7,1,1,2.3,1.9,3.2
	c1.4,1.3,2.2,2.9,3.2,4.5c0.2,0.3,0.5,0.6,0.8,0.9c0.1-0.1,0.3-0.2,0.4-0.3c-0.4-0.7-0.8-1.5-1.2-2.2c-1.4-2.8-2.6-5.8-4.2-8.5
	c-1.7-2.9-3.5-5.7-6-8c-0.1-0.1-0.2-0.3-0.3-0.5c-0.8-1.3-1.6-2.7-2.5-3.9c-1.6-2-3.2-4-4.9-5.9c-3.1-3.5-6.4-7-9.5-10.5
	c-0.4-0.4-0.7-0.8-1-1.2c0.9,0.3,1.7,0.7,2.3,1.2c1.5,1.3,3.1,2.5,4.6,3.9c1.7,1.5,3.4,3,4.9,4.7c2.4,2.5,4.6,5.3,7.1,7.8
	c3.4,3.3,6.1,7.1,8.5,11.1c0.7,1.2,1.6,2.4,2.5,3.5c0.4,0.5,1.1,0.9,1.4,1.4c1.1,1.9,2.1,3.8,3.2,5.7c1.1,2,2.2,3.9,3.2,6
	c0.8,1.5,1.3,3,2.1,4.5c0.2,0.5,0.8,0.8,1.1,1.2c-0.3-1.8-0.7-3.5-1.3-5c-1.6-4.2-3.1-8.4-5.6-12.2c-2.6-4-4.3-8.4-7.4-12.1
	c-2.1-2.4-3.2-5.4-5.9-7.3c-0.2-0.1-0.3-0.5-0.5-0.7c-0.8-1.1-1.5-2.2-2.3-3.3c-0.7-0.9-1.8-1.6-2.5-2.6c-0.9-1.4-2-2.6-3.2-3.7
	c-1.1-1-2-2.1-3-3.2c-1.6-1.7-3.2-3.4-5-5.3c0.5,0.2,0.6,0.2,0.8,0.3c4.9,2.8,9.3,6.4,13.8,9.8c4.1,3.1,7.2,7.2,10.3,11.2
	c1.8,2.4,3.4,5.1,4.9,7.8c2,3.7,3.8,7.4,5.6,11.2c0.9,2,1.7,4,2.6,6c0.2,0.4,0.4,0.8,0.6,1.1c0.7,0.7,1.5,1.4,2.3,2.2
	c-0.6-1.9-1.1-3.7-1.7-5.4c-2.8-7.8-6.6-15.2-11.2-22c-3-4.5-6.8-8.5-10.5-12.5c-4.4-4.6-9.3-8.7-14.6-12.1
	c-0.7-0.4-1.3-0.9-0.5-1.8c0.1-0.1,0.1-0.5,0-0.7c-0.5-1.6-1-3.2-1.6-4.8c-1.1-3-2.3-5.9-3.4-8.9c-0.8-2.2-1.5-4.5-2.2-6.8
	c-0.2-0.6-0.4-1.3-0.3-2c0.1-0.6,0.3-1.3,0.8-1.6c0.7-0.4,1.4,0.1,1.8,0.8c0.5,1,0.8,2.2,1.4,3.1c1.8,2.8,3.6,5.7,5.5,8.4
	c1.1,1.5,2.5,2.7,3.9,4.1c0.2,0.2,0.7,0.3,1.3,0.6c-0.2-0.8-0.2-1.2-0.4-1.6c-2-3.6-4.1-7.2-6-10.9c-1.6-3.1-3-6.4-4.3-9.7
	c-1.2-3.1-1.9-6.3-2-9.7c-0.1-3.1-0.1-6.2,0.1-9.3c0.4-4.3,2.7-7.6,6.1-10.1c1.2-0.9,2.7-1.6,4.3-1.2c0.4,1.3,0.5,1.2,1.7,0.6
	c0.6-0.3,1.5-0.5,2.1-0.3c5.1,1.4,8.8,4.8,11.4,9.2c0.8,1.3,1.1,2.9,1.5,4.4c0.5,2,0.8,4.1,1.2,6.2c0.1,0.4,0.3,1.1,0.6,1.2
	c0.7,0.2,1.3-0.1,1.4-0.9c0.1-0.9,0.2-1.8,0.2-2.7c0-0.8,0.3-1.1,1.1-1.1c2.3,0.1,4.5,0.2,6.8,0.2c1,0,1.1,0.6,1,1.1
	c-2.1,0.2-4.1,0.4-6,0.6c-0.5,0.1-0.9,0.6-1.4,0.9c0.5,0.3,0.9,0.9,1.5,1c1.6,0.3,3.2,0.5,4.8,0.7c1,0.1,2,0.3,3,0.2
	c1.3,0,1.6-0.4,1.4-1.7c-0.1-0.5-0.1-0.9-0.2-1.4c-0.2-1.1,0.2-1.6,1.3-1.7c1.3,0,2.7-0.1,4-0.1c3.7,0,7.4,0.1,11.1,0.1
	c0.4,0,0.7-0.1,1.1-0.1c3.2-0.1,6.4-0.3,9.6-0.2c5.2,0.2,10.4,0.6,15.7,1c2.3,0.2,4.7,0.4,7,0.6c3.6,0.4,7.2,0.7,10.8,1.1
	c2.9,0.3,5.7,0.6,8.6,0.9c0.9,0.1,1.8,0.2,2.7,0.3c1.3,0.2,2.5,0.6,3.7,0.7c3.3,0.1,6.6,0.3,9.7,1.6c1.3,0.5,1.7,1.1,1.6,2.3
	c-0.2,2.4-0.4,4.8-0.6,7.3c-0.1,1.5-0.3,3.1-0.4,4.6c0,0.8-0.4,1.8,0.9,2.2c1.5,0.4,3.8-1.3,3.8-2.9c0-1.9-0.1-3.8-0.1-5.7
	c0-0.4,0.1-0.8,0.2-1.5c0.5,0.5,0.9,0.7,1.1,1c1.9,2.8,3.8,5.5,5.8,8.3c0.2,0.3,0.5,0.5,0.7,0.8c1.8,1.8,3.7,3.5,5.3,5.4
	c1.4,1.6,2.7,3.2,3.7,5c1.1,2.1,2.3,4.3,2.7,6.6c0.6,3.4,0.6,6.8-1.6,10c-1.2,1.8-2.6,2-4.3,1.9c-0.5,0-1-0.2-1.4-0.3
	c-2.7-1-5.4-2-8-3.1c-2.3-1-4.5-0.6-6.7,0.4c-0.6,0.3-1,0.9-1.4,1.4c-0.5,0.6,0,1,0.5,1.2c0.7,0.2,1.5,0.1,2.2,0.2
	c1.8,0.3,3.6,0.5,5.4,0.9c1,0.2,1.9,0.9,2.9,1.3c2.8,1.1,5.6,1.6,8.4,0.4c1.8-0.7,3.3-1.8,4.8-3.1c2-1.7,2.8-4,3.2-6.3
	C189.8,149.6,188.3,145.8,186.5,142.2z M28,159.9c-1-0.7-2-1.3-3-2c0.1-0.1,0.1-0.2,0.2-0.3c1,0.6,2.1,1.2,3.1,1.9
	C28.2,159.7,28.1,159.8,28,159.9z M35.3,151c0.2,0.5,0.3,1,0.5,1.8c-1.9-1-3.3-1.9-4-3.8c-2-5.7-4.2-11.3-6.2-16.9
	c-0.5-1.3-0.3-2.9-0.3-4.3c0-0.2,0.3-0.6,0.5-0.6c0.2,0,0.6,0.3,0.7,0.5c0.2,0.4,0.4,0.8,0.4,1.2c0.2,2,1.2,3.7,2,5.6
	c0.4,1,0.6,2.1,1,3.1C31.7,142,33.5,146.5,35.3,151z M53.4,92.6c-1.1-0.7-2.2-1.4-3.4-2.2c0.3-0.3,0.6-0.6,1-0.8
	C56.4,86,61.8,82.5,67.2,79c0.4-0.3,1-0.3,1.7-0.5c0.1,1.3-0.3,1.8-1.4,2.2c-2.8,1.2-5.3,2.9-7.3,5.1c-1.9,2-3.6,4.3-5.3,6.5
	C54.4,92.9,54,93,53.4,92.6z M58.8,95.5c-0.2,0.3-0.7,0.8-0.7,0.8c-0.6-0.4-1.2-0.9-1.6-1.5c-0.1-0.1,0.3-0.6,0.6-0.9
	c3.5-2.6,7-5.2,10.5-7.8c0.3-0.2,0.5-0.3,1-0.5c0.5,1,0,1.4-0.6,1.8C64.4,89.5,61,91.8,58.8,95.5z M61.1,100
	c-0.7-0.6-1.4-1.1-0.4-1.8c2.5-1.9,5.1-3.7,7.6-5.6c0.1-0.1,0.3-0.1,0.8,0c-0.1,0.3-0.2,0.8-0.4,0.9c-2.6,1.1-4.5,2.9-6.3,5
	C61.9,99,61.5,99.4,61.1,100z M68.3,105.9c-1.6,0-3.2,0.3-4.9,0.4c-0.2,0-0.5,0-0.7-0.1c-0.8-0.6-0.8-3.3,0-3.9
	c1.7-1.3,3.4-2.6,5.2-3.9c0.4-0.3,0.8-0.4,1.5-0.8c0.3,2.2,0.6,4.1,0.8,6C70.6,105.9,70.6,105.9,68.3,105.9z M137.4,101.9
	c-1.6,0.9-3.1,2.4-5.3,2.3c-1.3,0-1.6,0.7-1.1,1.8c0.2,0.4,0.3,0.7,0.5,1.4c-0.9,0-1.5,0.1-2.1,0c-4.7-0.5-9.4-1.1-14.2-1.5
	c-5-0.4-10-0.6-15.1-0.8c-1.3-0.1-2.5,0-3.8,0.1c-3,0-5.9,0-8.9,0c-4.2,0.1-8.4,0.3-12.6,0.4c-0.8,0-1.2-0.2-1.3-1
	c-0.6-6.3-1.4-12.6-1.6-18.9c-0.1-3.2,0.8-6.4,1.6-9.5c0.5-1.9,1.8-3.6,2.7-5.4c0.1-0.2,0.2-0.6,0.1-0.8c-1.5-3.5-1.8-7.4-2.3-11.1
	c-0.6-3.7-1.4-7.5-1.1-11.3c0.1-1.3,0.2-2.7,0.4-4c0.1-0.3,0.5-0.8,0.8-0.8c2.7-0.3,5.4-0.5,8.1-0.7c2-0.2,4-0.3,5.9-0.6
	c2.6-0.3,5.2-0.7,7.8-1.1c0.8-0.1,1.5-0.6,2.3-0.7c1.5-0.2,3.1-0.5,4.6-0.4c2,0.1,3.8-0.7,5.7-1.1c4.4-0.9,8.6-2.9,13.3-2.9
	c0.4,0,0.9,0,1.3-0.2c1.8-0.8,3.1-0.1,4.2,1.3c1.8,2.3,3.7,4.6,5.4,7c1.3,1.8,2.6,3.5,3.6,5.4c3.3,6,6.8,12,9.2,18.4
	c1.5,4,3,8.1,4.3,12.2c0.8,2.7,1.2,5.6,1.8,8.4c0.2,1.1-0.1,1.9-0.9,2.7c-1.5,1.4-2.8,3-4.3,4.5c-0.6,0.6-1.3,1-2,1.5
	C142.2,98.3,139.9,100.4,137.4,101.9z M159.7,111.1c-5-0.7-10-1.3-15.2-2c3.4-3.1,6.6-6,10.1-9c1.8,3.6,3.6,7.1,5.4,10.6
	C159.9,110.8,159.8,110.9,159.7,111.1z"/>
</svg>
