<svg width="459" height="217" viewBox="0 0 459 217" fill="none" xmlns="http://www.w3.org/2000/svg">
<path d="M0.799805 131.4V173.4H76.3998V213H128.6V173.4H147.2V133.2H128.6V4.80001H67.9998L0.799805 131.4ZM78.1998 133.2H42.7998L77.5998 62.4H78.1998V133.2Z" fill="white"/>
<path d="M213.359 144V73.8C213.359 58.8 214.659 48.7 217.259 43.5C219.859 38.1 224.059 35.4 229.859 35.4C235.659 35.4 239.859 38.1 242.459 43.5C245.059 48.7 246.359 58.8 246.359 73.8V144C246.359 159 245.059 169.2 242.459 174.6C239.859 179.8 235.659 182.4 229.859 182.4C224.059 182.4 219.859 179.8 217.259 174.6C214.659 169.2 213.359 159 213.359 144ZM157.559 108.9C157.559 130.5 158.959 148.3 161.759 162.3C164.759 176.1 169.159 187.1 174.959 195.3C180.959 203.3 188.459 208.8 197.459 211.8C206.659 214.8 217.459 216.3 229.859 216.3C242.259 216.3 252.959 214.8 261.959 211.8C271.159 208.8 278.659 203.3 284.459 195.3C290.459 187.1 294.859 176.1 297.659 162.3C300.659 148.3 302.159 130.5 302.159 108.9C302.159 87.5 300.659 69.8 297.659 55.8C294.859 41.8 290.459 30.7 284.459 22.5C278.659 14.3 271.159 8.59999 261.959 5.4C252.959 2.2 242.259 0.600006 229.859 0.600006C217.459 0.600006 206.659 2.2 197.459 5.4C188.459 8.59999 180.959 14.3 174.959 22.5C169.159 30.7 164.759 41.8 161.759 55.8C158.959 69.8 157.559 87.5 157.559 108.9Z" fill="white"/>
<path d="M312.519 131.4V173.4H388.119V213H440.319V173.4H458.919V133.2H440.319V4.80001H379.719L312.519 131.4ZM389.919 133.2H354.519L389.319 62.4H389.919V133.2Z" fill="white"/>
</svg>
